<?xml version="1.0" encoding="utf-8"?>
<!-- Generator: Adobe Illustrator 26.0.0, SVG Export Plug-In . SVG Version: 6.00 Build 0)  -->
<svg version="1.2" baseProfile="tiny" xmlns="http://www.w3.org/2000/svg" xmlns:xlink="http://www.w3.org/1999/xlink" x="0px"
	 y="0px" viewBox="0 0 643 405" overflow="visible" xml:space="preserve">
<g id="Layer_2" display="none">
	<rect x="-223" y="-154" display="inline" fill="#101214" width="1920" height="1080"/>
</g>
<g id="Layer_1">
	<path fill="#434852" d="M589,54h-0.05c-0.55,0-1,0.45-1,1c0,0.21,0.07,0.41,0.18,0.57c-0.04-0.01-0.08-0.01-0.13-0.01
		c-0.55,0-1,0.45-1,1v0.05c0,0.55,0.45,1,1,1s1-0.45,1-1v-0.05c0-0.21-0.07-0.41-0.18-0.57C588.86,56,588.9,56,588.95,56H589V54
		L589,54z M583.95,54h-0.05c-0.55,0-1,0.45-1,1s0.45,1,1,1h0.05c0.55,0,1-0.45,1-1S584.5,54,583.95,54L583.95,54z M578.89,54h-0.05
		c-0.55,0-1,0.45-1,1s0.45,1,1,1h0.05c0.55,0,1-0.45,1-1S579.44,54,578.89,54L578.89,54z M573.84,54h-0.05c-0.55,0-1,0.45-1,1
		s0.45,1,1,1h0.05c0.55,0,1-0.45,1-1S574.39,54,573.84,54L573.84,54z M568.78,54h-0.06c-0.55,0-1,0.45-1,1s0.45,1,1,1h0.06
		c0.55,0,1-0.45,1-1S569.33,54,568.78,54L568.78,54z M563.72,54h-0.05c-0.55,0-1,0.45-1,1s0.45,1,1,1h0.05c0.55,0,1-0.45,1-1
		S564.28,54,563.72,54L563.72,54z M558.67,54h-0.05c-0.55,0-1,0.45-1,1s0.45,1,1,1h0.05c0.55,0,1-0.45,1-1S559.22,54,558.67,54
		L558.67,54z M553.61,54h-0.05c-0.55,0-1,0.45-1,1s0.45,1,1,1h0.05c0.55,0,1-0.45,1-1S554.17,54,553.61,54L553.61,54z M548.56,54
		h-0.05c-0.55,0-1,0.45-1,1s0.45,1,1,1h0.05c0.55,0,1-0.45,1-1S549.11,54,548.56,54L548.56,54z M543.51,54h-0.05c-0.55,0-1,0.45-1,1
		s0.45,1,1,1h0.05c0.55,0,1-0.45,1-1S544.06,54,543.51,54L543.51,54z M538.45,54h-0.05c-0.55,0-1,0.45-1,1s0.45,1,1,1h0.05
		c0.55,0,1-0.45,1-1S539,54,538.45,54L538.45,54z M533.4,54h-0.05c-0.55,0-1,0.45-1,1s0.45,1,1,1h0.05c0.55,0,1-0.45,1-1
		S533.95,54,533.4,54L533.4,54z M528.34,54h-0.06c-0.55,0-1,0.45-1,1s0.45,1,1,1h0.06c0.55,0,1-0.45,1-1S528.89,54,528.34,54
		L528.34,54z M523.28,54h-0.05c-0.55,0-1,0.45-1,1s0.45,1,1,1h0.05c0.55,0,1-0.45,1-1S523.84,54,523.28,54L523.28,54z M518.23,54
		h-0.05c-0.55,0-1,0.45-1,1s0.45,1,1,1h0.05c0.55,0,1-0.45,1-1S518.78,54,518.23,54L518.23,54z M513.17,54h-0.05c-0.55,0-1,0.45-1,1
		s0.45,1,1,1h0.05c0.55,0,1-0.45,1-1S513.73,54,513.17,54L513.17,54z M508.12,54h-0.05c-0.55,0-1,0.45-1,1s0.45,1,1,1h0.05
		c0.55,0,1-0.45,1-1S508.67,54,508.12,54L508.12,54z M503.07,54h-0.05c-0.55,0-1,0.45-1,1s0.45,1,1,1h0.05c0.55,0,1-0.45,1-1
		S503.62,54,503.07,54L503.07,54z M498.01,54h-0.05c-0.55,0-1,0.45-1,1s0.45,1,1,1h0.05c0.55,0,1-0.45,1-1S498.56,54,498.01,54
		L498.01,54z M492.96,54h-0.05c-0.55,0-1,0.45-1,1s0.45,1,1,1h0.05c0.55,0,1-0.45,1-1S493.51,54,492.96,54L492.96,54z M487.9,54
		h-0.06c-0.55,0-1,0.45-1,1s0.45,1,1,1h0.06c0.55,0,1-0.45,1-1S488.45,54,487.9,54L487.9,54z M482.84,54h-0.05c-0.55,0-1,0.45-1,1
		s0.45,1,1,1h0.05c0.55,0,1-0.45,1-1S483.4,54,482.84,54L482.84,54z M477.79,54h-0.05c-0.55,0-1,0.45-1,1s0.45,1,1,1h0.05
		c0.55,0,1-0.45,1-1S478.34,54,477.79,54L477.79,54z M472.73,54h-0.05c-0.55,0-1,0.45-1,1s0.45,1,1,1h0.05c0.55,0,1-0.45,1-1
		S473.29,54,472.73,54L472.73,54z M467.68,54h-0.05c-0.55,0-1,0.45-1,1s0.45,1,1,1h0.05c0.55,0,1-0.45,1-1S468.23,54,467.68,54
		L467.68,54z M462.62,54h-0.05c-0.55,0-1,0.45-1,1s0.45,1,1,1h0.05c0.55,0,1-0.45,1-1S463.18,54,462.62,54L462.62,54z M457.57,54
		h-0.05c-0.55,0-1,0.45-1,1s0.45,1,1,1h0.05c0.55,0,1-0.45,1-1S458.12,54,457.57,54L457.57,54z M452.52,54h-0.05c-0.55,0-1,0.45-1,1
		s0.45,1,1,1h0.05c0.55,0,1-0.45,1-1S453.07,54,452.52,54L452.52,54z M447.46,54h-0.05c-0.55,0-1,0.45-1,1s0.45,1,1,1h0.05
		c0.55,0,1-0.45,1-1S448.01,54,447.46,54L447.46,54z M442.41,54h-0.06c-0.55,0-1,0.45-1,1s0.45,1,1,1h0.06c0.55,0,1-0.45,1-1
		S442.96,54,442.41,54L442.41,54z M437.35,54h-0.05c-0.55,0-1,0.45-1,1s0.45,1,1,1h0.05c0.55,0,1-0.45,1-1S437.9,54,437.35,54
		L437.35,54z M432.29,54h-0.05c-0.55,0-1,0.45-1,1s0.45,1,1,1h0.05c0.55,0,1-0.45,1-1S432.85,54,432.29,54L432.29,54z M427.24,54
		h-0.05c-0.55,0-1,0.45-1,1s0.45,1,1,1h0.05c0.55,0,1-0.45,1-1S427.79,54,427.24,54L427.24,54z M422.18,54h-0.05c-0.55,0-1,0.45-1,1
		s0.45,1,1,1h0.05c0.55,0,1-0.45,1-1S422.74,54,422.18,54L422.18,54z M417.13,54h-0.05c-0.55,0-1,0.45-1,1s0.45,1,1,1h0.05
		c0.55,0,1-0.45,1-1S417.68,54,417.13,54L417.13,54z M412.08,54h-0.05c-0.55,0-1,0.45-1,1s0.45,1,1,1h0.05c0.55,0,1-0.45,1-1
		S412.63,54,412.08,54L412.08,54z M407.02,54h-0.05c-0.55,0-1,0.45-1,1s0.45,1,1,1h0.05c0.55,0,1-0.45,1-1S407.57,54,407.02,54
		L407.02,54z M401.97,54h-0.06c-0.55,0-1,0.45-1,1s0.45,1,1,1h0.06c0.55,0,1-0.45,1-1S402.52,54,401.97,54L401.97,54z M396.91,54
		h-0.05c-0.55,0-1,0.45-1,1s0.45,1,1,1h0.05c0.55,0,1-0.45,1-1S397.46,54,396.91,54L396.91,54z M391.85,54h-0.05c-0.55,0-1,0.45-1,1
		s0.45,1,1,1h0.05c0.55,0,1-0.45,1-1S392.41,54,391.85,54L391.85,54z M386.8,54h-0.05c-0.55,0-1,0.45-1,1s0.45,1,1,1h0.05
		c0.55,0,1-0.45,1-1S387.35,54,386.8,54L386.8,54z M381.74,54h-0.05c-0.55,0-1,0.45-1,1s0.45,1,1,1h0.05c0.55,0,1-0.45,1-1
		S382.3,54,381.74,54L381.74,54z M376.69,54h-0.05c-0.55,0-1,0.45-1,1s0.45,1,1,1h0.05c0.55,0,1-0.45,1-1S377.24,54,376.69,54
		L376.69,54z M371.64,54h-0.05c-0.55,0-1,0.45-1,1s0.45,1,1,1h0.05c0.55,0,1-0.45,1-1S372.19,54,371.64,54L371.64,54z M366.58,54
		h-0.05c-0.55,0-1,0.45-1,1s0.45,1,1,1h0.05c0.55,0,1-0.45,1-1S367.13,54,366.58,54L366.58,54z M361.53,54h-0.06c-0.55,0-1,0.45-1,1
		s0.45,1,1,1h0.06c0.55,0,1-0.45,1-1S362.08,54,361.53,54L361.53,54z M356.47,54h-0.05c-0.55,0-1,0.45-1,1s0.45,1,1,1h0.05
		c0.55,0,1-0.45,1-1S357.02,54,356.47,54L356.47,54z M351.41,54h-0.05c-0.55,0-1,0.45-1,1s0.45,1,1,1h0.05c0.55,0,1-0.45,1-1
		S351.97,54,351.41,54L351.41,54z M346.36,54h-0.05c-0.55,0-1,0.45-1,1s0.45,1,1,1h0.05c0.55,0,1-0.45,1-1S346.91,54,346.36,54
		L346.36,54z M341.3,54h-0.05c-0.55,0-1,0.45-1,1s0.45,1,1,1h0.05c0.55,0,1-0.45,1-1S341.86,54,341.3,54L341.3,54z M336.25,54h-0.05
		c-0.55,0-1,0.45-1,1s0.45,1,1,1h0.05c0.55,0,1-0.45,1-1S336.8,54,336.25,54L336.25,54z M331.2,54h-0.05c-0.55,0-1,0.45-1,1
		s0.45,1,1,1h0.05c0.55,0,1-0.45,1-1S331.75,54,331.2,54L331.2,54z M326.14,54h-0.05c-0.55,0-1,0.45-1,1s0.45,1,1,1h0.05
		c0.55,0,1-0.45,1-1S326.69,54,326.14,54L326.14,54z M321.09,54h-0.05c-0.55,0-1,0.45-1,1s0.45,1,1,1h0.05c0.55,0,1-0.45,1-1
		S321.64,54,321.09,54L321.09,54z M316.03,54h-0.06c-0.55,0-1,0.45-1,1s0.45,1,1,1h0.06c0.55,0,1-0.45,1-1S316.58,54,316.03,54
		L316.03,54z M310.97,54h-0.05c-0.55,0-1,0.45-1,1s0.45,1,1,1h0.05c0.55,0,1-0.45,1-1S311.53,54,310.97,54L310.97,54z M305.92,54
		h-0.05c-0.55,0-1,0.45-1,1s0.45,1,1,1h0.05c0.55,0,1-0.45,1-1S306.47,54,305.92,54L305.92,54z M300.86,54h-0.05c-0.55,0-1,0.45-1,1
		s0.45,1,1,1h0.05c0.55,0,1-0.45,1-1S301.42,54,300.86,54L300.86,54z M295.81,54h-0.05c-0.55,0-1,0.45-1,1s0.45,1,1,1h0.05
		c0.55,0,1-0.45,1-1S296.36,54,295.81,54L295.81,54z M290.76,54h-0.05c-0.55,0-1,0.45-1,1s0.45,1,1,1h0.05c0.55,0,1-0.45,1-1
		S291.31,54,290.76,54L290.76,54z M285.7,54h-0.06c-0.55,0-1,0.45-1,1s0.45,1,1,1h0.06c0.55,0,1-0.45,1-1S286.25,54,285.7,54
		L285.7,54z M280.64,54h-0.05c-0.55,0-1,0.45-1,1s0.45,1,1,1h0.05c0.55,0,1-0.45,1-1S281.2,54,280.64,54L280.64,54z M275.59,54
		h-0.05c-0.55,0-1,0.45-1,1s0.45,1,1,1h0.05c0.55,0,1-0.45,1-1S276.14,54,275.59,54L275.59,54z M270.54,54h-0.05c-0.55,0-1,0.45-1,1
		s0.45,1,1,1h0.05c0.55,0,1-0.45,1-1S271.09,54,270.54,54L270.54,54z M265.48,54h-0.06c-0.55,0-1,0.45-1,1s0.45,1,1,1h0.06
		c0.55,0,1-0.45,1-1S266.03,54,265.48,54L265.48,54z M260.42,54h-0.05c-0.55,0-1,0.45-1,1s0.45,1,1,1h0.05c0.55,0,1-0.45,1-1
		S260.98,54,260.42,54L260.42,54z M255.37,54h-0.05c-0.55,0-1,0.45-1,1s0.45,1,1,1h0.05c0.55,0,1-0.45,1-1S255.92,54,255.37,54
		L255.37,54z M250.32,54h-0.05c-0.55,0-1,0.45-1,1s0.45,1,1,1h0.05c0.55,0,1-0.45,1-1S250.87,54,250.32,54L250.32,54z M245.26,54
		h-0.06c-0.55,0-1,0.45-1,1s0.45,1,1,1h0.06c0.55,0,1-0.45,1-1S245.81,54,245.26,54L245.26,54z M240.2,54h-0.05c-0.55,0-1,0.45-1,1
		s0.45,1,1,1h0.05c0.55,0,1-0.45,1-1S240.76,54,240.2,54L240.2,54z M235.15,54h-0.05c-0.55,0-1,0.45-1,1s0.45,1,1,1h0.05
		c0.55,0,1-0.45,1-1S235.7,54,235.15,54L235.15,54z M230.1,54h-0.05c-0.55,0-1,0.45-1,1s0.45,1,1,1h0.05c0.55,0,1-0.45,1-1
		S230.65,54,230.1,54L230.1,54z M225.04,54h-0.06c-0.55,0-1,0.45-1,1s0.45,1,1,1h0.06c0.55,0,1-0.45,1-1S225.59,54,225.04,54
		L225.04,54z M219.98,54h-0.05c-0.55,0-1,0.45-1,1s0.45,1,1,1h0.05c0.55,0,1-0.45,1-1S220.54,54,219.98,54L219.98,54z M214.93,54
		h-0.05c-0.55,0-1,0.45-1,1s0.45,1,1,1h0.05c0.55,0,1-0.45,1-1S215.48,54,214.93,54L214.93,54z M209.88,54h-0.05c-0.55,0-1,0.45-1,1
		s0.45,1,1,1h0.05c0.55,0,1-0.45,1-1S210.43,54,209.88,54L209.88,54z M204.82,54h-0.05c-0.55,0-1,0.45-1,1s0.45,1,1,1h0.05
		c0.55,0,1-0.45,1-1S205.37,54,204.82,54L204.82,54z M199.77,54h-0.06c-0.55,0-1,0.45-1,1s0.45,1,1,1h0.06c0.55,0,1-0.45,1-1
		S200.32,54,199.77,54L199.77,54z M194.71,54h-0.05c-0.55,0-1,0.45-1,1s0.45,1,1,1h0.05c0.55,0,1-0.45,1-1S195.26,54,194.71,54
		L194.71,54z M189.65,54h-0.05c-0.55,0-1,0.45-1,1s0.45,1,1,1h0.05c0.55,0,1-0.45,1-1S190.21,54,189.65,54L189.65,54z M184.6,54
		h-0.05c-0.55,0-1,0.45-1,1s0.45,1,1,1h0.05c0.55,0,1-0.45,1-1S185.15,54,184.6,54L184.6,54z M179.55,54h-0.06c-0.55,0-1,0.45-1,1
		s0.45,1,1,1h0.06c0.55,0,1-0.45,1-1S180.1,54,179.55,54L179.55,54z M174.49,54h-0.05c-0.55,0-1,0.45-1,1s0.45,1,1,1h0.05
		c0.55,0,1-0.45,1-1S175.04,54,174.49,54L174.49,54z M169.43,54h-0.05c-0.55,0-1,0.45-1,1s0.45,1,1,1h0.05c0.55,0,1-0.45,1-1
		S169.99,54,169.43,54L169.43,54z M164.38,54h-0.05c-0.55,0-1,0.45-1,1s0.45,1,1,1h0.05c0.55,0,1-0.45,1-1S164.93,54,164.38,54
		L164.38,54z M159.33,54h-0.06c-0.55,0-1,0.45-1,1s0.45,1,1,1h0.06c0.55,0,1-0.45,1-1S159.88,54,159.33,54L159.33,54z M154.27,54
		h-0.05c-0.55,0-1,0.45-1,1s0.45,1,1,1h0.05c0.55,0,1-0.45,1-1S154.82,54,154.27,54L154.27,54z M149.21,54h-0.05c-0.55,0-1,0.45-1,1
		s0.45,1,1,1h0.05c0.55,0,1-0.45,1-1S149.77,54,149.21,54L149.21,54z M144.16,54h-0.05c-0.55,0-1,0.45-1,1s0.45,1,1,1h0.05
		c0.55,0,1-0.45,1-1S144.71,54,144.16,54L144.16,54z M139.11,54h-0.06c-0.55,0-1,0.45-1,1s0.45,1,1,1h0.06c0.55,0,1-0.45,1-1
		S139.66,54,139.11,54L139.11,54z M134.05,54h-0.05c-0.55,0-1,0.45-1,1s0.45,1,1,1h0.05c0.55,0,1-0.45,1-1S134.6,54,134.05,54
		L134.05,54z M128.99,54h-0.05c-0.55,0-1,0.45-1,1s0.45,1,1,1h0.05c0.55,0,1-0.45,1-1S129.55,54,128.99,54L128.99,54z M123.94,54
		h-0.05c-0.55,0-1,0.45-1,1s0.45,1,1,1h0.05c0.55,0,1-0.45,1-1S124.49,54,123.94,54L123.94,54z M118.89,54h-0.06c-0.55,0-1,0.45-1,1
		s0.45,1,1,1h0.06c0.55,0,1-0.45,1-1S119.44,54,118.89,54L118.89,54z M113.83,54h-0.05c-0.55,0-1,0.45-1,1s0.45,1,1,1h0.05
		c0.55,0,1-0.45,1-1S114.38,54,113.83,54L113.83,54z M110.97,54h-1.95c-0.02,0.07-0.03,0.15-0.03,0.23v0.05c0,0.55,0.45,1,1,1
		s1-0.45,1-1v-0.05C111,54.15,110.99,54.07,110.97,54L110.97,54z M110,58.28c-0.55,0-1,0.45-1,1v0.06c0,0.55,0.45,1,1,1s1-0.45,1-1
		v-0.06C111,58.73,110.55,58.28,110,58.28L110,58.28z M110,63.34c-0.55,0-1,0.45-1,1v0.05c0,0.55,0.45,1,1,1s1-0.45,1-1v-0.05
		C111,63.78,110.55,63.34,110,63.34L110,63.34z M110,68.39c-0.55,0-1,0.45-1,1v0.06c0,0.55,0.45,1,1,1s1-0.45,1-1v-0.06
		C111,68.84,110.55,68.39,110,68.39L110,68.39z M110,73.45c-0.55,0-1,0.45-1,1v0.05c0,0.55,0.45,1,1,1s1-0.45,1-1v-0.05
		C111,73.89,110.55,73.45,110,73.45L110,73.45z M110,78.5c-0.55,0-1,0.45-1,1v0.05c0,0.55,0.45,1,1,1s1-0.45,1-1V79.5
		C111,78.95,110.55,78.5,110,78.5L110,78.5z M110,83.55c-0.55,0-1,0.45-1,1v0.06c0,0.55,0.45,1,1,1s1-0.45,1-1v-0.06
		C111,84,110.55,83.55,110,83.55L110,83.55z M110,88.61c-0.55,0-1,0.45-1,1v0.05c0,0.55,0.45,1,1,1s1-0.45,1-1v-0.05
		C111,89.06,110.55,88.61,110,88.61L110,88.61z M110,93.66c-0.55,0-1,0.45-1,1v0.06c0,0.55,0.45,1,1,1s1-0.45,1-1v-0.06
		C111,94.11,110.55,93.66,110,93.66L110,93.66z M110,98.72c-0.55,0-1,0.45-1,1v0.05c0,0.55,0.45,1,1,1s1-0.45,1-1v-0.05
		C111,99.17,110.55,98.72,110,98.72L110,98.72z M110,103.77c-0.55,0-1,0.45-1,1v0.05c0,0.55,0.45,1,1,1s1-0.45,1-1v-0.05
		C111,104.22,110.55,103.77,110,103.77L110,103.77z M110,108.83c-0.55,0-1,0.45-1,1v0.06c0,0.55,0.45,1,1,1s1-0.45,1-1v-0.06
		C111,109.28,110.55,108.83,110,108.83L110,108.83z M110,113.89c-0.55,0-1,0.45-1,1v0.05c0,0.55,0.45,1,1,1s1-0.45,1-1v-0.05
		C111,114.33,110.55,113.89,110,113.89L110,113.89z M110,118.94c-0.55,0-1,0.45-1,1v0.05c0,0.55,0.45,1,1,1s1-0.45,1-1v-0.05
		C111,119.39,110.55,118.94,110,118.94L110,118.94z M110,123.99c-0.55,0-1,0.45-1,1v0.05c0,0.55,0.45,1,1,1s1-0.45,1-1v-0.05
		C111,124.44,110.55,123.99,110,123.99L110,123.99z M110,129.05c-0.55,0-1,0.45-1,1v0.06c0,0.55,0.45,1,1,1s1-0.45,1-1v-0.06
		C111,129.5,110.55,129.05,110,129.05L110,129.05z M110,134.11c-0.55,0-1,0.45-1,1v0.05c0,0.55,0.45,1,1,1s1-0.45,1-1v-0.05
		C111,134.55,110.55,134.11,110,134.11L110,134.11z M110,139.16c-0.55,0-1,0.45-1,1v0.05c0,0.55,0.45,1,1,1s1-0.45,1-1v-0.05
		C111,139.61,110.55,139.16,110,139.16L110,139.16z M110,144.21c-0.55,0-1,0.45-1,1v0.05c0,0.55,0.45,1,1,1s1-0.45,1-1v-0.05
		C111,144.66,110.55,144.21,110,144.21L110,144.21z M110,149.27c-0.55,0-1,0.45-1,1v0.06c0,0.55,0.45,1,1,1s1-0.45,1-1v-0.06
		C111,149.72,110.55,149.27,110,149.27L110,149.27z M110,154.33c-0.55,0-1,0.45-1,1v0.05c0,0.55,0.45,1,1,1s1-0.45,1-1v-0.05
		C111,154.77,110.55,154.33,110,154.33L110,154.33z M110,159.38c-0.55,0-1,0.45-1,1v0.05c0,0.55,0.45,1,1,1s1-0.45,1-1v-0.05
		C111,159.83,110.55,159.38,110,159.38L110,159.38z M110,164.43c-0.55,0-1,0.45-1,1v0.05c0,0.55,0.45,1,1,1s1-0.45,1-1v-0.05
		C111,164.88,110.55,164.43,110,164.43L110,164.43z M110,169.49c-0.55,0-1,0.45-1,1v0.06c0,0.55,0.45,1,1,1s1-0.45,1-1v-0.06
		C111,169.94,110.55,169.49,110,169.49L110,169.49z M110,174.55c-0.55,0-1,0.45-1,1v0.05c0,0.55,0.45,1,1,1s1-0.45,1-1v-0.05
		C111,174.99,110.55,174.55,110,174.55L110,174.55z M110,179.6c-0.55,0-1,0.45-1,1v0.05c0,0.55,0.45,1,1,1s1-0.45,1-1v-0.05
		C111,180.05,110.55,179.6,110,179.6L110,179.6z M110,184.65c-0.55,0-1,0.45-1,1v0.05c0,0.55,0.45,1,1,1s1-0.45,1-1v-0.05
		C111,185.1,110.55,184.65,110,184.65L110,184.65z M110,189.71c-0.55,0-1,0.45-1,1v0.06c0,0.55,0.45,1,1,1s1-0.45,1-1v-0.06
		C111,190.16,110.55,189.71,110,189.71L110,189.71z M110,194.77c-0.55,0-1,0.45-1,1v0.05c0,0.55,0.45,1,1,1s1-0.45,1-1v-0.05
		C111,195.21,110.55,194.77,110,194.77L110,194.77z M110,199.82c-0.55,0-1,0.45-1,1v0.05c0,0.55,0.45,1,1,1s1-0.45,1-1v-0.05
		C111,200.27,110.55,199.82,110,199.82L110,199.82z M110,204.88c-0.55,0-1,0.45-1,1v0.05c0,0.55,0.45,1,1,1s1-0.45,1-1v-0.05
		C111,205.32,110.55,204.88,110,204.88L110,204.88z M110,209.93c-0.55,0-1,0.45-1,1v0.05c0,0.55,0.45,1,1,1s1-0.45,1-1v-0.05
		C111,210.38,110.55,209.93,110,209.93L110,209.93z M110,214.98c-0.55,0-1,0.45-1,1v0.06c0,0.55,0.45,1,1,1s1-0.45,1-1v-0.06
		C111,215.43,110.55,214.98,110,214.98L110,214.98z M110,220.04c-0.55,0-1,0.45-1,1v0.05c0,0.55,0.45,1,1,1s1-0.45,1-1v-0.05
		C111,220.49,110.55,220.04,110,220.04L110,220.04z M110,225.1c-0.55,0-1,0.45-1,1v0.05c0,0.55,0.45,1,1,1s1-0.45,1-1v-0.05
		C111,225.54,110.55,225.1,110,225.1L110,225.1z M110,230.15c-0.55,0-1,0.45-1,1v0.05c0,0.55,0.45,1,1,1s1-0.45,1-1v-0.05
		C111,230.6,110.55,230.15,110,230.15L110,230.15z M110,235.2c-0.55,0-1,0.45-1,1v0.06c0,0.55,0.45,1,1,1s1-0.45,1-1v-0.06
		C111,235.65,110.55,235.2,110,235.2L110,235.2z M110,240.26c-0.55,0-1,0.45-1,1v0.05c0,0.55,0.45,1,1,1s1-0.45,1-1v-0.05
		C111,240.71,110.55,240.26,110,240.26L110,240.26z M110,245.32c-0.55,0-1,0.45-1,1v0.05c0,0.55,0.45,1,1,1s1-0.45,1-1v-0.05
		C111,245.76,110.55,245.32,110,245.32L110,245.32z M110,250.37c-0.55,0-1,0.45-1,1v0.05c0,0.55,0.45,1,1,1s1-0.45,1-1v-0.05
		C111,250.82,110.55,250.37,110,250.37L110,250.37z M110,255.42c-0.55,0-1,0.45-1,1v0.06c0,0.55,0.45,1,1,1s1-0.45,1-1v-0.06
		C111,255.87,110.55,255.42,110,255.42L110,255.42z M110,260.48c-0.55,0-1,0.45-1,1v0.05c0,0.55,0.45,1,1,1s1-0.45,1-1v-0.05
		C111,260.93,110.55,260.48,110,260.48L110,260.48z M110,265.54c-0.55,0-1,0.45-1,1v0.05c0,0.55,0.45,1,1,1s1-0.45,1-1v-0.05
		C111,265.98,110.55,265.54,110,265.54L110,265.54z M110,270.59c-0.55,0-1,0.45-1,1v0.05c0,0.55,0.45,1,1,1s1-0.45,1-1v-0.05
		C111,271.04,110.55,270.59,110,270.59L110,270.59z M110,275.64c-0.55,0-1,0.45-1,1v0.06c0,0.55,0.45,1,1,1s1-0.45,1-1v-0.06
		C111,276.09,110.55,275.64,110,275.64L110,275.64z M110,280.7c-0.55,0-1,0.45-1,1v0.05c0,0.55,0.45,1,1,1s1-0.45,1-1v-0.05
		C111,281.15,110.55,280.7,110,280.7L110,280.7z M110,285.76c-0.55,0-1,0.45-1,1v0.05c0,0.55,0.45,1,1,1s1-0.45,1-1v-0.05
		C111,286.2,110.55,285.76,110,285.76L110,285.76z M110,290.81c-0.55,0-1,0.45-1,1v0.05c0,0.55,0.45,1,1,1s1-0.45,1-1v-0.05
		C111,291.26,110.55,290.81,110,290.81L110,290.81z M110,295.86c-0.55,0-1,0.45-1,1v0.06c0,0.55,0.45,1,1,1s1-0.45,1-1v-0.06
		C111,296.31,110.55,295.86,110,295.86L110,295.86z M110,300.92c-0.55,0-1,0.45-1,1v0.05c0,0.55,0.45,1,1,1s1-0.45,1-1v-0.05
		C111,301.37,110.55,300.92,110,300.92L110,300.92z M110,305.98c-0.55,0-1,0.45-1,1v0.05c0,0.55,0.45,1,1,1s1-0.45,1-1v-0.05
		C111,306.42,110.55,305.98,110,305.98L110,305.98z M110,311.03c-0.55,0-1,0.45-1,1v0.05c0,0.55,0.45,1,1,1s1-0.45,1-1v-0.05
		C111,311.48,110.55,311.03,110,311.03L110,311.03z M110,316.08c-0.55,0-1,0.45-1,1v0.06c0,0.55,0.45,1,1,1s1-0.45,1-1v-0.06
		C111,316.53,110.55,316.08,110,316.08L110,316.08z M110,321.14c-0.55,0-1,0.45-1,1v0.05c0,0.55,0.45,1,1,1s1-0.45,1-1v-0.05
		C111,321.59,110.55,321.14,110,321.14L110,321.14z M110,326.2c-0.55,0-1,0.45-1,1v0.05c0,0.55,0.45,1,1,1s1-0.45,1-1v-0.05
		C111,326.64,110.55,326.2,110,326.2L110,326.2z M110,331.25c-0.55,0-1,0.45-1,1v0.05c0,0.55,0.45,1,1,1s1-0.45,1-1v-0.05
		C111,331.7,110.55,331.25,110,331.25L110,331.25z M110,336.3c-0.55,0-1,0.45-1,1v0.05c0,0.55,0.45,1,1,1s1-0.45,1-1v-0.05
		C111,336.75,110.55,336.3,110,336.3L110,336.3z M110,341.36c-0.55,0-1,0.45-1,1v0.06c0,0.55,0.45,1,1,1s1-0.45,1-1v-0.06
		C111,341.81,110.55,341.36,110,341.36L110,341.36z M110,346.42c-0.55,0-1,0.45-1,1v0.05c0,0.55,0.45,1,1,1s1-0.45,1-1v-0.05
		C111,346.86,110.55,346.42,110,346.42L110,346.42z M110,351.47c-0.55,0-1,0.45-1,1v0.05c0,0.55,0.45,1,1,1s1-0.45,1-1v-0.05
		C111,351.92,110.55,351.47,110,351.47L110,351.47z M110,356.52c-0.55,0-1,0.45-1,1v0.05c0,0.55,0.45,1,1,1s1-0.45,1-1v-0.05
		C111,356.97,110.55,356.52,110,356.52L110,356.52z M110,361.58c-0.55,0-1,0.45-1,1v0.05c0,0.55,0.45,1,1,1s1-0.45,1-1v-0.05
		C111,362.03,110.55,361.58,110,361.58L110,361.58z M110,366.64c-0.55,0-1,0.45-1,1v0.05c0,0.55,0.45,1,1,1s1-0.45,1-1v-0.05
		C111,367.08,110.55,366.64,110,366.64L110,366.64z M110,371.69c-0.55,0-1,0.45-1,1v0.05c0,0.55,0.45,1,1,1s1-0.45,1-1v-0.05
		C111,372.14,110.55,371.69,110,371.69L110,371.69z M112.8,372h-0.05c-0.55,0-1,0.45-1,1s0.45,1,1,1h0.05c0.55,0,1-0.45,1-1
		S113.35,372,112.8,372L112.8,372z M117.86,372h-0.06c-0.55,0-1,0.45-1,1s0.45,1,1,1h0.06c0.55,0,1-0.45,1-1S118.41,372,117.86,372
		L117.86,372z M122.91,372h-0.05c-0.55,0-1,0.45-1,1s0.45,1,1,1h0.05c0.55,0,1-0.45,1-1S123.46,372,122.91,372L122.91,372z
		 M127.96,372h-0.05c-0.55,0-1,0.45-1,1s0.45,1,1,1h0.05c0.55,0,1-0.45,1-1S128.52,372,127.96,372L127.96,372z M133.02,372h-0.05
		c-0.55,0-1,0.45-1,1s0.45,1,1,1h0.05c0.55,0,1-0.45,1-1S133.57,372,133.02,372L133.02,372z M138.08,372h-0.06c-0.55,0-1,0.45-1,1
		s0.45,1,1,1h0.06c0.55,0,1-0.45,1-1S138.63,372,138.08,372L138.08,372z M143.13,372h-0.05c-0.55,0-1,0.45-1,1s0.45,1,1,1h0.05
		c0.55,0,1-0.45,1-1S143.68,372,143.13,372L143.13,372z M148.18,372h-0.05c-0.55,0-1,0.45-1,1s0.45,1,1,1h0.05c0.55,0,1-0.45,1-1
		S148.74,372,148.18,372L148.18,372z M153.24,372h-0.05c-0.55,0-1,0.45-1,1s0.45,1,1,1h0.05c0.55,0,1-0.45,1-1
		S153.79,372,153.24,372L153.24,372z M158.3,372h-0.06c-0.55,0-1,0.45-1,1s0.45,1,1,1h0.06c0.55,0,1-0.45,1-1S158.85,372,158.3,372
		L158.3,372z M163.35,372h-0.05c-0.55,0-1,0.45-1,1s0.45,1,1,1h0.05c0.55,0,1-0.45,1-1S163.9,372,163.35,372L163.35,372z M168.4,372
		h-0.05c-0.55,0-1,0.45-1,1s0.45,1,1,1h0.05c0.55,0,1-0.45,1-1S168.96,372,168.4,372L168.4,372z M173.46,372h-0.05
		c-0.55,0-1,0.45-1,1s0.45,1,1,1h0.05c0.55,0,1-0.45,1-1S174.01,372,173.46,372L173.46,372z M178.52,372h-0.06c-0.55,0-1,0.45-1,1
		s0.45,1,1,1h0.06c0.55,0,1-0.45,1-1S179.07,372,178.52,372L178.52,372z M183.57,372h-0.05c-0.55,0-1,0.45-1,1s0.45,1,1,1h0.05
		c0.55,0,1-0.45,1-1S184.12,372,183.57,372L183.57,372z M188.62,372h-0.05c-0.55,0-1,0.45-1,1s0.45,1,1,1h0.05c0.55,0,1-0.45,1-1
		S189.18,372,188.62,372L188.62,372z M193.68,372h-0.05c-0.55,0-1,0.45-1,1s0.45,1,1,1h0.05c0.55,0,1-0.45,1-1
		S194.23,372,193.68,372L193.68,372z M198.73,372h-0.05c-0.55,0-1,0.45-1,1s0.45,1,1,1h0.05c0.55,0,1-0.45,1-1
		S199.29,372,198.73,372L198.73,372z M203.79,372h-0.06c-0.55,0-1,0.45-1,1s0.45,1,1,1h0.06c0.55,0,1-0.45,1-1
		S204.34,372,203.79,372L203.79,372z M208.85,372h-0.05c-0.55,0-1,0.45-1,1s0.45,1,1,1h0.05c0.55,0,1-0.45,1-1S209.4,372,208.85,372
		L208.85,372z M213.9,372h-0.05c-0.55,0-1,0.45-1,1s0.45,1,1,1h0.05c0.55,0,1-0.45,1-1S214.45,372,213.9,372L213.9,372z M218.95,372
		h-0.05c-0.55,0-1,0.45-1,1s0.45,1,1,1h0.05c0.55,0,1-0.45,1-1S219.51,372,218.95,372L218.95,372z M224.01,372h-0.06
		c-0.55,0-1,0.45-1,1s0.45,1,1,1h0.06c0.55,0,1-0.45,1-1S224.56,372,224.01,372L224.01,372z M229.07,372h-0.05c-0.55,0-1,0.45-1,1
		s0.45,1,1,1h0.05c0.55,0,1-0.45,1-1S229.62,372,229.07,372L229.07,372z M234.12,372h-0.05c-0.55,0-1,0.45-1,1s0.45,1,1,1h0.05
		c0.55,0,1-0.45,1-1S234.67,372,234.12,372L234.12,372z M239.17,372h-0.05c-0.55,0-1,0.45-1,1s0.45,1,1,1h0.05c0.55,0,1-0.45,1-1
		S239.73,372,239.17,372L239.17,372z M244.23,372h-0.06c-0.55,0-1,0.45-1,1s0.45,1,1,1h0.06c0.55,0,1-0.45,1-1
		S244.78,372,244.23,372L244.23,372z M249.29,372h-0.05c-0.55,0-1,0.45-1,1s0.45,1,1,1h0.05c0.55,0,1-0.45,1-1
		S249.84,372,249.29,372L249.29,372z M254.34,372h-0.05c-0.55,0-1,0.45-1,1s0.45,1,1,1h0.05c0.55,0,1-0.45,1-1
		S254.89,372,254.34,372L254.34,372z M259.39,372h-0.05c-0.55,0-1,0.45-1,1s0.45,1,1,1h0.05c0.55,0,1-0.45,1-1
		S259.95,372,259.39,372L259.39,372z M264.45,372h-0.06c-0.55,0-1,0.45-1,1s0.45,1,1,1h0.06c0.55,0,1-0.45,1-1S265,372,264.45,372
		L264.45,372z M269.51,372h-0.05c-0.55,0-1,0.45-1,1s0.45,1,1,1h0.05c0.55,0,1-0.45,1-1S270.06,372,269.51,372L269.51,372z
		 M274.56,372h-0.05c-0.55,0-1,0.45-1,1s0.45,1,1,1h0.05c0.55,0,1-0.45,1-1S275.11,372,274.56,372L274.56,372z M279.61,372h-0.05
		c-0.55,0-1,0.45-1,1s0.45,1,1,1h0.05c0.55,0,1-0.45,1-1S280.17,372,279.61,372L279.61,372z M284.67,372h-0.06c-0.55,0-1,0.45-1,1
		s0.45,1,1,1h0.06c0.55,0,1-0.45,1-1S285.22,372,284.67,372L284.67,372z M289.72,372h-0.05c-0.55,0-1,0.45-1,1s0.45,1,1,1h0.05
		c0.55,0,1-0.45,1-1S290.28,372,289.72,372L289.72,372z M294.78,372h-0.06c-0.55,0-1,0.45-1,1s0.45,1,1,1h0.06c0.55,0,1-0.45,1-1
		S295.33,372,294.78,372L294.78,372z M299.84,372h-0.05c-0.55,0-1,0.45-1,1s0.45,1,1,1h0.05c0.55,0,1-0.45,1-1
		S300.39,372,299.84,372L299.84,372z M304.89,372h-0.05c-0.55,0-1,0.45-1,1s0.45,1,1,1h0.05c0.55,0,1-0.45,1-1
		S305.44,372,304.89,372L304.89,372z M309.95,372h-0.05c-0.55,0-1,0.45-1,1s0.45,1,1,1h0.05c0.55,0,1-0.45,1-1S310.5,372,309.95,372
		L309.95,372z M315,372h-0.05c-0.55,0-1,0.45-1,1s0.45,1,1,1H315c0.55,0,1-0.45,1-1S315.55,372,315,372L315,372z M320.05,372H320
		c-0.55,0-1,0.45-1,1s0.45,1,1,1h0.05c0.55,0,1-0.45,1-1S320.61,372,320.05,372L320.05,372z M325.11,372h-0.05c-0.55,0-1,0.45-1,1
		s0.45,1,1,1h0.05c0.55,0,1-0.45,1-1S325.66,372,325.11,372L325.11,372z M330.16,372h-0.05c-0.55,0-1,0.45-1,1s0.45,1,1,1h0.05
		c0.55,0,1-0.45,1-1S330.72,372,330.16,372L330.16,372z M335.22,372h-0.05c-0.55,0-1,0.45-1,1s0.45,1,1,1h0.05c0.55,0,1-0.45,1-1
		S335.77,372,335.22,372L335.22,372z M340.28,372h-0.06c-0.55,0-1,0.45-1,1s0.45,1,1,1h0.06c0.55,0,1-0.45,1-1
		S340.83,372,340.28,372L340.28,372z M345.33,372h-0.05c-0.55,0-1,0.45-1,1s0.45,1,1,1h0.05c0.55,0,1-0.45,1-1
		S345.88,372,345.33,372L345.33,372z M350.39,372h-0.05c-0.55,0-1,0.45-1,1s0.45,1,1,1h0.05c0.55,0,1-0.45,1-1
		S350.94,372,350.39,372L350.39,372z M355.44,372h-0.05c-0.55,0-1,0.45-1,1s0.45,1,1,1h0.05c0.55,0,1-0.45,1-1
		S355.99,372,355.44,372L355.44,372z M360.49,372h-0.05c-0.55,0-1,0.45-1,1s0.45,1,1,1h0.05c0.55,0,1-0.45,1-1
		S361.05,372,360.49,372L360.49,372z M365.55,372h-0.05c-0.55,0-1,0.45-1,1s0.45,1,1,1h0.05c0.55,0,1-0.45,1-1S366.1,372,365.55,372
		L365.55,372z M370.6,372h-0.05c-0.55,0-1,0.45-1,1s0.45,1,1,1h0.05c0.55,0,1-0.45,1-1S371.16,372,370.6,372L370.6,372z M375.66,372
		h-0.05c-0.55,0-1,0.45-1,1s0.45,1,1,1h0.05c0.55,0,1-0.45,1-1S376.21,372,375.66,372L375.66,372z M380.72,372h-0.06
		c-0.55,0-1,0.45-1,1s0.45,1,1,1h0.06c0.55,0,1-0.45,1-1S381.27,372,380.72,372L380.72,372z M385.77,372h-0.05c-0.55,0-1,0.45-1,1
		s0.45,1,1,1h0.05c0.55,0,1-0.45,1-1S386.32,372,385.77,372L385.77,372z M390.83,372h-0.05c-0.55,0-1,0.45-1,1s0.45,1,1,1h0.05
		c0.55,0,1-0.45,1-1S391.38,372,390.83,372L390.83,372z M395.88,372h-0.05c-0.55,0-1,0.45-1,1s0.45,1,1,1h0.05c0.55,0,1-0.45,1-1
		S396.43,372,395.88,372L395.88,372z M400.93,372h-0.05c-0.55,0-1,0.45-1,1s0.45,1,1,1h0.05c0.55,0,1-0.45,1-1
		S401.49,372,400.93,372L400.93,372z M405.99,372h-0.05c-0.55,0-1,0.45-1,1s0.45,1,1,1h0.05c0.55,0,1-0.45,1-1
		S406.54,372,405.99,372L405.99,372z M411.04,372h-0.05c-0.55,0-1,0.45-1,1s0.45,1,1,1h0.05c0.55,0,1-0.45,1-1S411.6,372,411.04,372
		L411.04,372z M416.1,372h-0.05c-0.55,0-1,0.45-1,1s0.45,1,1,1h0.05c0.55,0,1-0.45,1-1S416.65,372,416.1,372L416.1,372z M421.16,372
		h-0.06c-0.55,0-1,0.45-1,1s0.45,1,1,1h0.06c0.55,0,1-0.45,1-1S421.71,372,421.16,372L421.16,372z M426.21,372h-0.05
		c-0.55,0-1,0.45-1,1s0.45,1,1,1h0.05c0.55,0,1-0.45,1-1S426.76,372,426.21,372L426.21,372z M431.27,372h-0.05c-0.55,0-1,0.45-1,1
		s0.45,1,1,1h0.05c0.55,0,1-0.45,1-1S431.82,372,431.27,372L431.27,372z M436.32,372h-0.05c-0.55,0-1,0.45-1,1s0.45,1,1,1h0.05
		c0.55,0,1-0.45,1-1S436.87,372,436.32,372L436.32,372z M441.38,372h-0.05c-0.55,0-1,0.45-1,1s0.45,1,1,1h0.05c0.55,0,1-0.45,1-1
		S441.93,372,441.38,372L441.38,372z M446.43,372h-0.05c-0.55,0-1,0.45-1,1s0.45,1,1,1h0.05c0.55,0,1-0.45,1-1
		S446.98,372,446.43,372L446.43,372z M451.48,372h-0.05c-0.55,0-1,0.45-1,1s0.45,1,1,1h0.05c0.55,0,1-0.45,1-1
		S452.04,372,451.48,372L451.48,372z M456.54,372h-0.05c-0.55,0-1,0.45-1,1s0.45,1,1,1h0.05c0.55,0,1-0.45,1-1
		S457.09,372,456.54,372L456.54,372z M461.59,372h-0.05c-0.55,0-1,0.45-1,1s0.45,1,1,1h0.05c0.55,0,1-0.45,1-1
		S462.15,372,461.59,372L461.59,372z M466.65,372h-0.06c-0.55,0-1,0.45-1,1s0.45,1,1,1h0.06c0.55,0,1-0.45,1-1S467.2,372,466.65,372
		L466.65,372z M471.71,372h-0.05c-0.55,0-1,0.45-1,1s0.45,1,1,1h0.05c0.55,0,1-0.45,1-1S472.26,372,471.71,372L471.71,372z
		 M476.76,372h-0.05c-0.55,0-1,0.45-1,1s0.45,1,1,1h0.05c0.55,0,1-0.45,1-1S477.31,372,476.76,372L476.76,372z M481.82,372h-0.05
		c-0.55,0-1,0.45-1,1s0.45,1,1,1h0.05c0.55,0,1-0.45,1-1S482.37,372,481.82,372L481.82,372z M486.87,372h-0.05c-0.55,0-1,0.45-1,1
		s0.45,1,1,1h0.05c0.55,0,1-0.45,1-1S487.42,372,486.87,372L486.87,372z M491.92,372h-0.05c-0.55,0-1,0.45-1,1s0.45,1,1,1h0.05
		c0.55,0,1-0.45,1-1S492.48,372,491.92,372L491.92,372z M496.98,372h-0.05c-0.55,0-1,0.45-1,1s0.45,1,1,1h0.05c0.55,0,1-0.45,1-1
		S497.53,372,496.98,372L496.98,372z M502.03,372h-0.05c-0.55,0-1,0.45-1,1s0.45,1,1,1h0.05c0.55,0,1-0.45,1-1
		S502.59,372,502.03,372L502.03,372z M507.09,372h-0.06c-0.55,0-1,0.45-1,1s0.45,1,1,1h0.06c0.55,0,1-0.45,1-1
		S507.64,372,507.09,372L507.09,372z M512.15,372h-0.05c-0.55,0-1,0.45-1,1s0.45,1,1,1h0.05c0.55,0,1-0.45,1-1S512.7,372,512.15,372
		L512.15,372z M517.2,372h-0.05c-0.55,0-1,0.45-1,1s0.45,1,1,1h0.05c0.55,0,1-0.45,1-1S517.75,372,517.2,372L517.2,372z M522.26,372
		h-0.05c-0.55,0-1,0.45-1,1s0.45,1,1,1h0.05c0.55,0,1-0.45,1-1S522.81,372,522.26,372L522.26,372z M527.31,372h-0.05
		c-0.55,0-1,0.45-1,1s0.45,1,1,1h0.05c0.55,0,1-0.45,1-1S527.86,372,527.31,372L527.31,372z M532.36,372h-0.05c-0.55,0-1,0.45-1,1
		s0.45,1,1,1h0.05c0.55,0,1-0.45,1-1S532.92,372,532.36,372L532.36,372z M537.42,372h-0.05c-0.55,0-1,0.45-1,1s0.45,1,1,1h0.05
		c0.55,0,1-0.45,1-1S537.97,372,537.42,372L537.42,372z M542.47,372h-0.05c-0.55,0-1,0.45-1,1s0.45,1,1,1h0.05c0.55,0,1-0.45,1-1
		S543.03,372,542.47,372L542.47,372z M547.53,372h-0.06c-0.55,0-1,0.45-1,1s0.45,1,1,1h0.06c0.55,0,1-0.45,1-1
		S548.08,372,547.53,372L547.53,372z M552.59,372h-0.05c-0.55,0-1,0.45-1,1s0.45,1,1,1h0.05c0.55,0,1-0.45,1-1
		S553.14,372,552.59,372L552.59,372z M557.64,372h-0.05c-0.55,0-1,0.45-1,1s0.45,1,1,1h0.05c0.55,0,1-0.45,1-1
		S558.19,372,557.64,372L557.64,372z M562.7,372h-0.05c-0.55,0-1,0.45-1,1s0.45,1,1,1h0.05c0.55,0,1-0.45,1-1S563.25,372,562.7,372
		L562.7,372z M567.75,372h-0.05c-0.55,0-1,0.45-1,1s0.45,1,1,1h0.05c0.55,0,1-0.45,1-1S568.3,372,567.75,372L567.75,372z M572.8,372
		h-0.05c-0.55,0-1,0.45-1,1s0.45,1,1,1h0.05c0.55,0,1-0.45,1-1S573.36,372,572.8,372L572.8,372z M577.86,372h-0.05
		c-0.55,0-1,0.45-1,1s0.45,1,1,1h0.05c0.55,0,1-0.45,1-1S578.41,372,577.86,372L577.86,372z M582.91,372h-0.05c-0.55,0-1,0.45-1,1
		s0.45,1,1,1h0.05c0.55,0,1-0.45,1-1S583.47,372,582.91,372L582.91,372z M587.97,372h-0.05c-0.55,0-1,0.45-1,1s0.45,1,1,1h0.05
		c0.55,0,1-0.45,1-1S588.52,372,587.97,372L587.97,372z M588,368.97c-0.55,0-1,0.45-1,1v0.06c0,0.55,0.45,1,1,1s1-0.45,1-1v-0.06
		C589,369.42,588.55,368.97,588,368.97L588,368.97z M588,363.92c-0.55,0-1,0.45-1,1v0.05c0,0.55,0.45,1,1,1s1-0.45,1-1v-0.05
		C589,364.37,588.55,363.92,588,363.92L588,363.92z M588,358.86c-0.55,0-1,0.45-1,1v0.05c0,0.55,0.45,1,1,1s1-0.45,1-1v-0.05
		C589,359.31,588.55,358.86,588,358.86L588,358.86z M588,353.81c-0.55,0-1,0.45-1,1v0.05c0,0.55,0.45,1,1,1s1-0.45,1-1v-0.05
		C589,354.26,588.55,353.81,588,353.81L588,353.81z M588,348.76c-0.55,0-1,0.45-1,1v0.05c0,0.55,0.45,1,1,1s1-0.45,1-1v-0.05
		C589,349.2,588.55,348.76,588,348.76L588,348.76z M588,343.7c-0.55,0-1,0.45-1,1v0.05c0,0.55,0.45,1,1,1s1-0.45,1-1v-0.05
		C589,344.15,588.55,343.7,588,343.7L588,343.7z M588,338.64c-0.55,0-1,0.45-1,1v0.06c0,0.55,0.45,1,1,1s1-0.45,1-1v-0.06
		C589,339.09,588.55,338.64,588,338.64L588,338.64z M588,333.59c-0.55,0-1,0.45-1,1v0.05c0,0.55,0.45,1,1,1s1-0.45,1-1v-0.05
		C589,334.04,588.55,333.59,588,333.59L588,333.59z M588,328.54c-0.55,0-1,0.45-1,1v0.05c0,0.55,0.45,1,1,1s1-0.45,1-1v-0.05
		C589,328.98,588.55,328.54,588,328.54L588,328.54z M588,323.48c-0.55,0-1,0.45-1,1v0.05c0,0.55,0.45,1,1,1s1-0.45,1-1v-0.05
		C589,323.93,588.55,323.48,588,323.48L588,323.48z M588,318.42c-0.55,0-1,0.45-1,1v0.06c0,0.55,0.45,1,1,1s1-0.45,1-1v-0.06
		C589,318.87,588.55,318.42,588,318.42L588,318.42z M588,313.37c-0.55,0-1,0.45-1,1v0.05c0,0.55,0.45,1,1,1s1-0.45,1-1v-0.05
		C589,313.82,588.55,313.37,588,313.37L588,313.37z M588,308.32c-0.55,0-1,0.45-1,1v0.05c0,0.55,0.45,1,1,1s1-0.45,1-1v-0.05
		C589,308.76,588.55,308.32,588,308.32L588,308.32z M588,303.26c-0.55,0-1,0.45-1,1v0.05c0,0.55,0.45,1,1,1s1-0.45,1-1v-0.05
		C589,303.71,588.55,303.26,588,303.26L588,303.26z M588,298.2c-0.55,0-1,0.45-1,1v0.06c0,0.55,0.45,1,1,1s1-0.45,1-1v-0.06
		C589,298.65,588.55,298.2,588,298.2L588,298.2z M588,293.15c-0.55,0-1,0.45-1,1v0.05c0,0.55,0.45,1,1,1s1-0.45,1-1v-0.05
		C589,293.6,588.55,293.15,588,293.15L588,293.15z M588,288.1c-0.55,0-1,0.45-1,1v0.05c0,0.55,0.45,1,1,1s1-0.45,1-1v-0.05
		C589,288.54,588.55,288.1,588,288.1L588,288.1z M588,283.04c-0.55,0-1,0.45-1,1v0.05c0,0.55,0.45,1,1,1s1-0.45,1-1v-0.05
		C589,283.49,588.55,283.04,588,283.04L588,283.04z M588,277.98c-0.55,0-1,0.45-1,1v0.06c0,0.55,0.45,1,1,1s1-0.45,1-1v-0.06
		C589,278.43,588.55,277.98,588,277.98L588,277.98z M588,272.93c-0.55,0-1,0.45-1,1v0.05c0,0.55,0.45,1,1,1s1-0.45,1-1v-0.05
		C589,273.38,588.55,272.93,588,272.93L588,272.93z M588,267.88c-0.55,0-1,0.45-1,1v0.05c0,0.55,0.45,1,1,1s1-0.45,1-1v-0.05
		C589,268.32,588.55,267.88,588,267.88L588,267.88z M588,262.82c-0.55,0-1,0.45-1,1v0.05c0,0.55,0.45,1,1,1s1-0.45,1-1v-0.05
		C589,263.27,588.55,262.82,588,262.82L588,262.82z M588,257.77c-0.55,0-1,0.45-1,1v0.05c0,0.55,0.45,1,1,1s1-0.45,1-1v-0.05
		C589,258.21,588.55,257.77,588,257.77L588,257.77z M588,252.71c-0.55,0-1,0.45-1,1v0.06c0,0.55,0.45,1,1,1s1-0.45,1-1v-0.06
		C589,253.16,588.55,252.71,588,252.71L588,252.71z M588,247.65c-0.55,0-1,0.45-1,1v0.05c0,0.55,0.45,1,1,1s1-0.45,1-1v-0.05
		C589,248.1,588.55,247.65,588,247.65L588,247.65z M588,242.6c-0.55,0-1,0.45-1,1v0.05c0,0.55,0.45,1,1,1s1-0.45,1-1v-0.05
		C589,243.05,588.55,242.6,588,242.6L588,242.6z M588,237.55c-0.55,0-1,0.45-1,1v0.05c0,0.55,0.45,1,1,1s1-0.45,1-1v-0.05
		C589,237.99,588.55,237.55,588,237.55L588,237.55z M588,232.49c-0.55,0-1,0.45-1,1v0.06c0,0.55,0.45,1,1,1s1-0.45,1-1v-0.06
		C589,232.94,588.55,232.49,588,232.49L588,232.49z M588,227.43c-0.55,0-1,0.45-1,1v0.05c0,0.55,0.45,1,1,1s1-0.45,1-1v-0.05
		C589,227.88,588.55,227.43,588,227.43L588,227.43z M588,222.38c-0.55,0-1,0.45-1,1v0.05c0,0.55,0.45,1,1,1s1-0.45,1-1v-0.05
		C589,222.83,588.55,222.38,588,222.38L588,222.38z M588,217.33c-0.55,0-1,0.45-1,1v0.05c0,0.55,0.45,1,1,1s1-0.45,1-1v-0.05
		C589,217.77,588.55,217.33,588,217.33L588,217.33z M588,212.27c-0.55,0-1,0.45-1,1v0.06c0,0.55,0.45,1,1,1s1-0.45,1-1v-0.06
		C589,212.72,588.55,212.27,588,212.27L588,212.27z M588,207.21c-0.55,0-1,0.45-1,1v0.05c0,0.55,0.45,1,1,1s1-0.45,1-1v-0.05
		C589,207.66,588.55,207.21,588,207.21L588,207.21z M588,202.16c-0.55,0-1,0.45-1,1v0.05c0,0.55,0.45,1,1,1s1-0.45,1-1v-0.05
		C589,202.61,588.55,202.16,588,202.16L588,202.16z M588,197.11c-0.55,0-1,0.45-1,1v0.05c0,0.55,0.45,1,1,1s1-0.45,1-1v-0.05
		C589,197.55,588.55,197.11,588,197.11L588,197.11z M588,192.05c-0.55,0-1,0.45-1,1v0.06c0,0.55,0.45,1,1,1s1-0.45,1-1v-0.06
		C589,192.5,588.55,192.05,588,192.05L588,192.05z M588,186.99c-0.55,0-1,0.45-1,1v0.05c0,0.55,0.45,1,1,1s1-0.45,1-1v-0.05
		C589,187.44,588.55,186.99,588,186.99L588,186.99z M588,181.94c-0.55,0-1,0.45-1,1v0.05c0,0.55,0.45,1,1,1s1-0.45,1-1v-0.05
		C589,182.39,588.55,181.94,588,181.94L588,181.94z M588,176.89c-0.55,0-1,0.45-1,1v0.05c0,0.55,0.45,1,1,1s1-0.45,1-1v-0.05
		C589,177.33,588.55,176.89,588,176.89L588,176.89z M588,171.83c-0.55,0-1,0.45-1,1v0.06c0,0.55,0.45,1,1,1s1-0.45,1-1v-0.06
		C589,172.28,588.55,171.83,588,171.83L588,171.83z M588,166.77c-0.55,0-1,0.45-1,1v0.05c0,0.55,0.45,1,1,1s1-0.45,1-1v-0.05
		C589,167.22,588.55,166.77,588,166.77L588,166.77z M588,161.72c-0.55,0-1,0.45-1,1v0.05c0,0.55,0.45,1,1,1s1-0.45,1-1v-0.05
		C589,162.17,588.55,161.72,588,161.72L588,161.72z M588,156.67c-0.55,0-1,0.45-1,1v0.05c0,0.55,0.45,1,1,1s1-0.45,1-1v-0.05
		C589,157.11,588.55,156.67,588,156.67L588,156.67z M588,151.61c-0.55,0-1,0.45-1,1v0.06c0,0.55,0.45,1,1,1s1-0.45,1-1v-0.06
		C589,152.06,588.55,151.61,588,151.61L588,151.61z M588,146.55c-0.55,0-1,0.45-1,1v0.05c0,0.55,0.45,1,1,1s1-0.45,1-1v-0.05
		C589,147,588.55,146.55,588,146.55L588,146.55z M588,141.5c-0.55,0-1,0.45-1,1v0.05c0,0.55,0.45,1,1,1s1-0.45,1-1v-0.05
		C589,141.95,588.55,141.5,588,141.5L588,141.5z M588,136.45c-0.55,0-1,0.45-1,1v0.05c0,0.55,0.45,1,1,1s1-0.45,1-1v-0.05
		C589,136.89,588.55,136.45,588,136.45L588,136.45z M588,131.39c-0.55,0-1,0.45-1,1v0.05c0,0.55,0.45,1,1,1s1-0.45,1-1v-0.05
		C589,131.84,588.55,131.39,588,131.39L588,131.39z M588,126.33c-0.55,0-1,0.45-1,1v0.06c0,0.55,0.45,1,1,1s1-0.45,1-1v-0.06
		C589,126.78,588.55,126.33,588,126.33L588,126.33z M588,121.28c-0.55,0-1,0.45-1,1v0.05c0,0.55,0.45,1,1,1s1-0.45,1-1v-0.05
		C589,121.73,588.55,121.28,588,121.28L588,121.28z M588,116.23c-0.55,0-1,0.45-1,1v0.05c0,0.55,0.45,1,1,1s1-0.45,1-1v-0.05
		C589,116.67,588.55,116.23,588,116.23L588,116.23z M588,111.17c-0.55,0-1,0.45-1,1v0.05c0,0.55,0.45,1,1,1s1-0.45,1-1v-0.05
		C589,111.62,588.55,111.17,588,111.17L588,111.17z M588,106.11c-0.55,0-1,0.45-1,1v0.06c0,0.55,0.45,1,1,1s1-0.45,1-1v-0.06
		C589,106.56,588.55,106.11,588,106.11L588,106.11z M588,101.06c-0.55,0-1,0.45-1,1v0.05c0,0.55,0.45,1,1,1s1-0.45,1-1v-0.05
		C589,101.51,588.55,101.06,588,101.06L588,101.06z M588,96.01c-0.55,0-1,0.45-1,1v0.05c0,0.55,0.45,1,1,1s1-0.45,1-1v-0.05
		C589,96.45,588.55,96.01,588,96.01L588,96.01z M588,90.95c-0.55,0-1,0.45-1,1v0.06c0,0.55,0.45,1,1,1s1-0.45,1-1v-0.06
		C589,91.4,588.55,90.95,588,90.95L588,90.95z M588,85.9c-0.55,0-1,0.45-1,1v0.05c0,0.55,0.45,1,1,1s1-0.45,1-1V86.9
		C589,86.34,588.55,85.9,588,85.9L588,85.9z M588,80.84c-0.55,0-1,0.45-1,1v0.06c0,0.55,0.45,1,1,1s1-0.45,1-1v-0.06
		C589,81.29,588.55,80.84,588,80.84L588,80.84z M588,75.79c-0.55,0-1,0.45-1,1v0.05c0,0.55,0.45,1,1,1s1-0.45,1-1v-0.05
		C589,76.23,588.55,75.79,588,75.79L588,75.79z M588,70.73c-0.55,0-1,0.45-1,1v0.06c0,0.55,0.45,1,1,1s1-0.45,1-1v-0.06
		C589,71.18,588.55,70.73,588,70.73L588,70.73z M588,65.68c-0.55,0-1,0.45-1,1v0.05c0,0.55,0.45,1,1,1s1-0.45,1-1v-0.05
		C589,66.12,588.55,65.68,588,65.68L588,65.68z M588,60.62c-0.55,0-1,0.45-1,1v0.06c0,0.55,0.45,1,1,1s1-0.45,1-1v-0.06
		C589,61.07,588.55,60.62,588,60.62L588,60.62z"/>
	
		<line fill="none" stroke="#434852" stroke-width="2" stroke-linecap="round" stroke-miterlimit="10" stroke-dasharray="0,5" x1="348.5" y1="54.5" x2="348.5" y2="373.5"/>
	
		<line fill="none" stroke="#434852" stroke-width="2" stroke-linecap="round" stroke-miterlimit="10" stroke-dasharray="0,5" x1="228.5" y1="54.5" x2="228.5" y2="373.5"/>
	
		<line fill="none" stroke="#434852" stroke-width="2" stroke-linecap="round" stroke-miterlimit="10" stroke-dasharray="0,5" x1="468.5" y1="54.5" x2="468.5" y2="373.5"/>
	<rect x="109" y="259" fill="#445063" width="448" height="40"/>
	<rect x="109" y="129" fill="#428AE2" width="79" height="40"/>
	<g>
		<path fill="#CCCCCC" d="M207.46,146.43c0,0.92-0.26,1.66-0.77,2.2c-0.51,0.55-1.21,0.91-2.08,1.09v0.08
			c1.1,0.13,1.93,0.48,2.46,1.04s0.81,1.3,0.81,2.21c0,0.8-0.19,1.51-0.56,2.13c-0.37,0.62-0.95,1.11-1.72,1.45
			c-0.78,0.35-1.77,0.52-2.99,0.52c-0.72,0-1.39-0.05-2-0.16s-1.21-0.3-1.77-0.59v-1.58c0.58,0.28,1.2,0.5,1.87,0.66
			c0.67,0.16,1.31,0.24,1.93,0.24c1.23,0,2.12-0.24,2.67-0.72c0.55-0.48,0.82-1.15,0.82-1.99c0-0.86-0.34-1.48-1.01-1.86
			c-0.67-0.38-1.62-0.57-2.84-0.57h-1.33v-1.44h1.35c1.13,0,1.99-0.24,2.57-0.71c0.58-0.47,0.88-1.1,0.88-1.89
			c0-0.67-0.22-1.18-0.67-1.55c-0.45-0.37-1.06-0.55-1.83-0.55c-0.74,0-1.38,0.11-1.91,0.33c-0.53,0.22-1.05,0.49-1.56,0.83
			l-0.85-1.16c0.49-0.39,1.09-0.72,1.82-1c0.73-0.28,1.55-0.42,2.47-0.42c1.44,0,2.51,0.32,3.21,0.96
			C207.11,144.62,207.46,145.44,207.46,146.43z"/>
		<path fill="#CCCCCC" d="M218.48,146.43c0,0.92-0.26,1.66-0.77,2.2c-0.51,0.55-1.21,0.91-2.08,1.09v0.08
			c1.1,0.13,1.93,0.48,2.46,1.04s0.81,1.3,0.81,2.21c0,0.8-0.19,1.51-0.56,2.13c-0.37,0.62-0.95,1.11-1.72,1.45
			c-0.78,0.35-1.77,0.52-2.99,0.52c-0.72,0-1.39-0.05-2-0.16s-1.21-0.3-1.77-0.59v-1.58c0.58,0.28,1.2,0.5,1.87,0.66
			c0.67,0.16,1.31,0.24,1.93,0.24c1.23,0,2.12-0.24,2.67-0.72c0.55-0.48,0.82-1.15,0.82-1.99c0-0.86-0.34-1.48-1.01-1.86
			c-0.67-0.38-1.62-0.57-2.84-0.57h-1.33v-1.44h1.35c1.13,0,1.99-0.24,2.57-0.71c0.58-0.47,0.88-1.1,0.88-1.89
			c0-0.67-0.22-1.18-0.67-1.55c-0.45-0.37-1.06-0.55-1.83-0.55c-0.74,0-1.38,0.11-1.91,0.33c-0.53,0.22-1.05,0.49-1.56,0.83
			l-0.85-1.16c0.49-0.39,1.09-0.72,1.82-1c0.73-0.28,1.55-0.42,2.47-0.42c1.44,0,2.51,0.32,3.21,0.96
			C218.13,144.62,218.48,145.44,218.48,146.43z"/>
		<path fill="#CCCCCC" d="M230.07,150.07c0,1.48-0.15,2.74-0.46,3.8s-0.8,1.87-1.46,2.44c-0.67,0.56-1.55,0.85-2.66,0.85
			c-1.55,0-2.7-0.63-3.44-1.88c-0.74-1.25-1.11-2.99-1.11-5.21c0-1.49,0.15-2.76,0.45-3.81s0.79-1.86,1.45-2.42
			c0.67-0.56,1.55-0.84,2.64-0.84c1.54,0,2.69,0.62,3.45,1.86C229.69,146.1,230.07,147.83,230.07,150.07z M222.64,150.07
			c0,1.89,0.21,3.3,0.65,4.24s1.17,1.41,2.21,1.41c1.03,0,1.76-0.47,2.2-1.4c0.44-0.93,0.66-2.35,0.66-4.25
			c0-1.87-0.22-3.28-0.66-4.22s-1.18-1.41-2.2-1.41c-1.04,0-1.77,0.47-2.21,1.41S222.64,148.19,222.64,150.07z"/>
		<path fill="#CCCCCC" d="M248.98,146.45c1.17,0,2.04,0.3,2.62,0.9c0.58,0.6,0.87,1.56,0.87,2.9v6.72h-1.68v-6.64
			c0-1.63-0.7-2.45-2.1-2.45c-1,0-1.72,0.29-2.15,0.87s-0.65,1.42-0.65,2.52v5.7h-1.68v-6.64c0-1.63-0.71-2.45-2.12-2.45
			c-1.04,0-1.76,0.32-2.16,0.96c-0.4,0.64-0.6,1.57-0.6,2.77v5.35h-1.69v-10.32h1.37l0.25,1.41h0.1c0.32-0.54,0.75-0.94,1.3-1.2
			c0.55-0.26,1.13-0.4,1.74-0.4c1.62,0,2.67,0.58,3.16,1.73h0.1c0.35-0.59,0.82-1.03,1.42-1.31
			C247.68,146.59,248.31,146.45,248.98,146.45z"/>
		<path fill="#CCCCCC" d="M262.38,154.11c0,1-0.37,1.76-1.12,2.27c-0.74,0.51-1.75,0.77-3,0.77c-0.72,0-1.34-0.06-1.86-0.17
			c-0.52-0.12-0.98-0.28-1.38-0.48v-1.54c0.41,0.21,0.91,0.39,1.49,0.57c0.58,0.17,1.18,0.26,1.78,0.26c0.86,0,1.48-0.14,1.87-0.41
			c0.39-0.28,0.58-0.65,0.58-1.11c0-0.26-0.07-0.49-0.21-0.69c-0.14-0.21-0.4-0.41-0.76-0.62c-0.37-0.21-0.89-0.44-1.57-0.69
			c-0.67-0.26-1.24-0.51-1.71-0.77c-0.48-0.26-0.84-0.56-1.1-0.92s-0.39-0.82-0.39-1.39c0-0.87,0.36-1.55,1.07-2.02
			c0.71-0.47,1.65-0.71,2.8-0.71c0.63,0,1.22,0.06,1.76,0.18c0.55,0.12,1.06,0.29,1.53,0.51l-0.58,1.35
			c-0.44-0.18-0.89-0.33-1.37-0.46c-0.48-0.13-0.96-0.19-1.46-0.19c-0.69,0-1.22,0.11-1.59,0.34s-0.55,0.53-0.55,0.91
			c0,0.28,0.08,0.52,0.25,0.72c0.17,0.2,0.45,0.39,0.84,0.58c0.39,0.19,0.91,0.41,1.57,0.66c0.65,0.24,1.21,0.49,1.68,0.75
			c0.46,0.26,0.82,0.57,1.06,0.93C262.26,153.1,262.38,153.56,262.38,154.11z"/>
	</g>
	<g>
		<path fill="#CCCCCC" d="M9.67,160.62c-0.31,0-0.58-0.02-0.81-0.07s-0.44-0.11-0.62-0.18v-1.46c0.21,0.05,0.42,0.1,0.65,0.13
			s0.48,0.06,0.73,0.06c0.32,0,0.63-0.06,0.92-0.19c0.29-0.13,0.52-0.35,0.7-0.67c0.18-0.32,0.27-0.77,0.27-1.35v-13.67h1.73v13.54
			c0,1.32-0.33,2.3-0.98,2.93C11.62,160.3,10.75,160.62,9.67,160.62z"/>
		<path fill="#CCCCCC" d="M27.39,156.96h-1.73v-6.41h-7.05v6.41h-1.73v-13.75h1.73v5.82h7.05v-5.82h1.73V156.96z"/>
		<path fill="#CCCCCC" d="M43.83,156.96h-7.68v-13.75h7.68v1.52h-5.95v4.29h5.6v1.5h-5.6v4.91h5.95V156.96z"/>
		<path fill="#CCCCCC" d="M50.54,146.47c1.26,0,2.19,0.28,2.79,0.83c0.6,0.55,0.91,1.43,0.91,2.64v7.03H53l-0.33-1.46H52.6
			c-0.45,0.56-0.92,0.98-1.42,1.25s-1.18,0.4-2.05,0.4c-0.94,0-1.71-0.25-2.33-0.74s-0.92-1.27-0.92-2.32c0-1.03,0.4-1.82,1.21-2.38
			c0.81-0.56,2.05-0.86,3.74-0.91l1.75-0.06v-0.62c0-0.86-0.19-1.46-0.56-1.79c-0.37-0.33-0.9-0.5-1.58-0.5
			c-0.54,0-1.05,0.08-1.54,0.24c-0.49,0.16-0.94,0.34-1.37,0.55l-0.52-1.27c0.45-0.24,0.98-0.45,1.6-0.63S49.87,146.47,50.54,146.47
			z M51.04,151.97c-1.28,0.05-2.17,0.26-2.67,0.62s-0.74,0.87-0.74,1.52c0,0.58,0.18,1,0.53,1.27s0.81,0.4,1.36,0.4
			c0.87,0,1.6-0.24,2.18-0.72c0.58-0.48,0.87-1.22,0.87-2.22v-0.92L51.04,151.97z"/>
		<path fill="#CCCCCC" d="M61.09,146.45c0.68,0,1.29,0.13,1.84,0.39c0.55,0.26,1.01,0.65,1.4,1.17h0.1l0.23-1.37H66v10.49
			c0,1.48-0.38,2.59-1.13,3.33c-0.75,0.74-1.92,1.12-3.5,1.12c-1.52,0-2.75-0.22-3.72-0.65v-1.56c1.01,0.54,2.29,0.81,3.81,0.81
			c0.89,0,1.58-0.26,2.09-0.78c0.51-0.52,0.76-1.23,0.76-2.13v-0.4c0-0.15,0.01-0.38,0.02-0.66c0.01-0.29,0.03-0.49,0.04-0.61H64.3
			c-0.69,1.04-1.76,1.56-3.2,1.56c-1.34,0-2.38-0.47-3.13-1.41c-0.75-0.94-1.13-2.25-1.13-3.93c0-1.64,0.38-2.95,1.13-3.92
			S59.77,146.45,61.09,146.45z M61.32,147.87c-0.86,0-1.53,0.34-2,1.03c-0.48,0.69-0.71,1.67-0.71,2.94s0.23,2.24,0.7,2.92
			c0.47,0.67,1.15,1.01,2.05,1.01c1.04,0,1.8-0.28,2.27-0.84c0.47-0.56,0.71-1.46,0.71-2.71v-0.4c0-1.41-0.24-2.42-0.73-3.03
			S62.36,147.87,61.32,147.87z"/>
		<path fill="#CCCCCC" d="M70.97,156.96h-1.69v-14.63h1.69V156.96z"/>
		<path fill="#CCCCCC" d="M78.23,146.45c0.89,0,1.65,0.19,2.28,0.58c0.64,0.39,1.12,0.93,1.46,1.63s0.51,1.52,0.51,2.46v1.02h-7.07
			c0.03,1.17,0.32,2.06,0.9,2.67c0.57,0.61,1.37,0.92,2.4,0.92c0.65,0,1.24-0.06,1.74-0.18c0.51-0.12,1.03-0.3,1.57-0.53v1.48
			c-0.53,0.23-1.05,0.4-1.56,0.51c-0.51,0.11-1.12,0.16-1.83,0.16c-0.98,0-1.84-0.2-2.59-0.6c-0.75-0.4-1.34-0.99-1.75-1.78
			c-0.42-0.79-0.63-1.76-0.63-2.9c0-1.13,0.19-2.1,0.57-2.91c0.38-0.81,0.91-1.43,1.6-1.87C76.52,146.66,77.31,146.45,78.23,146.45z
			 M78.21,147.83c-0.81,0-1.45,0.26-1.92,0.78s-0.75,1.24-0.84,2.17h5.26c-0.01-0.87-0.22-1.58-0.62-2.13
			C79.7,148.11,79.07,147.83,78.21,147.83z"/>
		<path fill="#CCCCCC" d="M91.82,154.11c0,1-0.37,1.76-1.12,2.27c-0.74,0.51-1.75,0.77-3,0.77c-0.72,0-1.34-0.06-1.86-0.17
			c-0.52-0.12-0.98-0.28-1.38-0.48v-1.54c0.41,0.21,0.91,0.39,1.49,0.57c0.58,0.17,1.18,0.26,1.78,0.26c0.86,0,1.48-0.14,1.87-0.41
			c0.39-0.28,0.58-0.65,0.58-1.11c0-0.26-0.07-0.49-0.21-0.69c-0.14-0.21-0.4-0.41-0.76-0.62c-0.37-0.21-0.89-0.44-1.57-0.69
			c-0.67-0.26-1.24-0.51-1.71-0.77c-0.48-0.26-0.84-0.56-1.1-0.92s-0.39-0.82-0.39-1.39c0-0.87,0.36-1.55,1.07-2.02
			c0.71-0.47,1.65-0.71,2.8-0.71c0.63,0,1.22,0.06,1.76,0.18c0.55,0.12,1.06,0.29,1.53,0.51l-0.58,1.35
			c-0.44-0.18-0.89-0.33-1.37-0.46c-0.48-0.13-0.96-0.19-1.46-0.19c-0.69,0-1.22,0.11-1.59,0.34s-0.55,0.53-0.55,0.91
			c0,0.28,0.08,0.52,0.25,0.72c0.17,0.2,0.45,0.39,0.84,0.58c0.39,0.19,0.91,0.41,1.57,0.66c0.65,0.24,1.21,0.49,1.68,0.75
			c0.46,0.26,0.82,0.57,1.06,0.93C91.7,153.1,91.82,153.56,91.82,154.11z"/>
	</g>
	<g>
		<path fill="#CCCCCC" d="M298.94,11.28c0,1.22-0.44,2.17-1.33,2.85c-0.89,0.68-2.08,1.02-3.58,1.02c-0.77,0-1.48-0.06-2.14-0.17
			c-0.65-0.12-1.2-0.28-1.64-0.48v-1.66c0.46,0.21,1.04,0.39,1.72,0.56c0.69,0.17,1.4,0.25,2.13,0.25c1.03,0,1.8-0.2,2.32-0.6
			s0.78-0.94,0.78-1.62c0-0.45-0.1-0.83-0.29-1.14c-0.19-0.31-0.52-0.59-0.99-0.86c-0.47-0.26-1.12-0.54-1.95-0.84
			c-1.17-0.42-2.05-0.94-2.65-1.56c-0.6-0.62-0.9-1.46-0.9-2.52c0-0.73,0.19-1.36,0.56-1.88c0.37-0.52,0.89-0.92,1.55-1.2
			c0.66-0.28,1.42-0.42,2.28-0.42c0.76,0,1.45,0.07,2.08,0.21c0.63,0.14,1.2,0.33,1.71,0.56l-0.54,1.48
			c-0.48-0.21-0.99-0.38-1.55-0.52s-1.14-0.21-1.74-0.21c-0.86,0-1.51,0.18-1.94,0.55c-0.44,0.37-0.65,0.85-0.65,1.45
			c0,0.46,0.1,0.85,0.29,1.16c0.19,0.31,0.51,0.58,0.94,0.83c0.44,0.24,1.03,0.51,1.77,0.79c0.81,0.3,1.49,0.61,2.05,0.95
			c0.56,0.34,0.98,0.75,1.27,1.22C298.79,9.97,298.94,10.56,298.94,11.28z"/>
		<path fill="#CCCCCC" d="M304.92,13.77c0.26,0,0.52-0.02,0.79-0.07s0.49-0.09,0.65-0.14v1.29c-0.18,0.09-0.44,0.16-0.77,0.22
			c-0.33,0.06-0.65,0.09-0.96,0.09c-0.54,0-1.04-0.09-1.49-0.28c-0.46-0.19-0.82-0.51-1.11-0.97c-0.28-0.46-0.42-1.11-0.42-1.94
			V5.95h-1.46V5.14l1.48-0.67l0.67-2.2h1v2.37h2.98v1.31h-2.98v5.97c0,0.63,0.15,1.09,0.45,1.4
			C304.06,13.62,304.45,13.77,304.92,13.77z"/>
		<path fill="#CCCCCC" d="M312.34,4.47c1.26,0,2.19,0.28,2.79,0.83c0.6,0.55,0.91,1.43,0.91,2.64v7.03h-1.23l-0.33-1.46h-0.08
			c-0.45,0.56-0.92,0.98-1.42,1.25s-1.18,0.4-2.05,0.4c-0.94,0-1.71-0.25-2.33-0.74s-0.92-1.27-0.92-2.32c0-1.03,0.4-1.82,1.21-2.38
			c0.81-0.56,2.05-0.86,3.74-0.91l1.75-0.06V8.12c0-0.86-0.19-1.46-0.56-1.79c-0.37-0.33-0.9-0.5-1.58-0.5
			c-0.54,0-1.05,0.08-1.54,0.24c-0.49,0.16-0.94,0.34-1.37,0.55l-0.52-1.27c0.45-0.24,0.98-0.45,1.6-0.63S311.67,4.47,312.34,4.47z
			 M312.84,9.97c-1.28,0.05-2.17,0.26-2.67,0.62s-0.74,0.87-0.74,1.52c0,0.58,0.18,1,0.53,1.27s0.81,0.4,1.36,0.4
			c0.87,0,1.6-0.24,2.18-0.72c0.58-0.48,0.87-1.22,0.87-2.22V9.91L312.84,9.97z"/>
		<path fill="#CCCCCC" d="M324.05,4.45c0.19,0,0.4,0.01,0.63,0.03c0.22,0.02,0.42,0.05,0.59,0.09l-0.21,1.56
			c-0.17-0.04-0.35-0.07-0.55-0.1c-0.2-0.03-0.39-0.04-0.57-0.04c-0.53,0-1.02,0.14-1.48,0.43c-0.46,0.29-0.83,0.69-1.11,1.21
			c-0.28,0.52-0.41,1.13-0.41,1.82v5.51h-1.69V4.64h1.39l0.19,1.89h0.08c0.33-0.56,0.76-1.05,1.29-1.46
			C322.7,4.65,323.33,4.45,324.05,4.45z"/>
		<path fill="#CCCCCC" d="M330.63,13.77c0.26,0,0.52-0.02,0.79-0.07s0.49-0.09,0.65-0.14v1.29c-0.18,0.09-0.44,0.16-0.77,0.22
			c-0.33,0.06-0.65,0.09-0.96,0.09c-0.54,0-1.04-0.09-1.49-0.28c-0.46-0.19-0.82-0.51-1.11-0.97c-0.28-0.46-0.42-1.11-0.42-1.94
			V5.95h-1.46V5.14l1.48-0.67l0.67-2.2h1v2.37H332v1.31h-2.98v5.97c0,0.63,0.15,1.09,0.45,1.4
			C329.77,13.62,330.16,13.77,330.63,13.77z"/>
		<path fill="#CCCCCC" d="M333.27,10.55v-1.5h4.66v1.5H333.27z"/>
		<path fill="#CCCCCC" d="M348.96,4.64v10.32h-1.39l-0.25-1.37h-0.08c-0.33,0.54-0.8,0.93-1.39,1.18c-0.59,0.25-1.22,0.38-1.89,0.38
			c-1.25,0-2.18-0.3-2.81-0.9c-0.63-0.6-0.94-1.55-0.94-2.86V4.64h1.71v6.64c0,1.64,0.76,2.46,2.29,2.46c1.14,0,1.94-0.32,2.38-0.96
			s0.66-1.57,0.66-2.77V4.64H348.96z"/>
		<path fill="#CCCCCC" d="M357.15,4.45c1.27,0,2.29,0.44,3.07,1.33c0.78,0.89,1.17,2.22,1.17,4.01c0,1.76-0.39,3.09-1.17,4.01
			c-0.78,0.91-1.81,1.37-3.09,1.37c-0.8,0-1.45-0.15-1.97-0.45c-0.52-0.3-0.93-0.65-1.22-1.05h-0.12c0.03,0.22,0.05,0.49,0.08,0.83
			c0.03,0.33,0.04,0.62,0.04,0.87v4.24h-1.69V4.64h1.39l0.23,1.41h0.08c0.31-0.45,0.71-0.83,1.21-1.14
			C355.65,4.6,356.31,4.45,357.15,4.45z M356.84,5.87c-1.05,0-1.79,0.3-2.22,0.89c-0.43,0.59-0.66,1.49-0.68,2.7v0.33
			c0,1.27,0.21,2.25,0.63,2.94c0.42,0.69,1.19,1.03,2.32,1.03c0.63,0,1.15-0.17,1.55-0.52s0.71-0.82,0.91-1.42
			c0.2-0.6,0.3-1.28,0.3-2.05c0-1.18-0.23-2.12-0.68-2.83C358.49,6.22,357.79,5.87,356.84,5.87z"/>
		<path fill="#CCCCCC" d="M372.53,13.77c0.26,0,0.52-0.02,0.79-0.07s0.49-0.09,0.65-0.14v1.29c-0.18,0.09-0.44,0.16-0.77,0.22
			c-0.33,0.06-0.65,0.09-0.96,0.09c-0.54,0-1.04-0.09-1.49-0.28c-0.46-0.19-0.82-0.51-1.11-0.97c-0.28-0.46-0.42-1.11-0.42-1.94
			V5.95h-1.46V5.14l1.48-0.67l0.67-2.2h1v2.37h2.98v1.31h-2.98v5.97c0,0.63,0.15,1.09,0.45,1.4
			C371.67,13.62,372.06,13.77,372.53,13.77z"/>
		<path fill="#CCCCCC" d="M376.9,0.77c0.26,0,0.48,0.09,0.68,0.26c0.2,0.17,0.3,0.45,0.3,0.82c0,0.36-0.1,0.63-0.3,0.81
			c-0.2,0.18-0.43,0.27-0.68,0.27c-0.28,0-0.52-0.09-0.71-0.27c-0.19-0.18-0.29-0.45-0.29-0.81c0-0.37,0.1-0.65,0.29-0.82
			C376.38,0.85,376.62,0.77,376.9,0.77z M377.73,4.64v10.32h-1.69V4.64H377.73z"/>
		<path fill="#CCCCCC" d="M392.33,4.45c1.17,0,2.04,0.3,2.62,0.9c0.58,0.6,0.87,1.56,0.87,2.9v6.72h-1.68V8.32
			c0-1.63-0.7-2.45-2.1-2.45c-1,0-1.72,0.29-2.15,0.87s-0.65,1.42-0.65,2.52v5.7h-1.68V8.32c0-1.63-0.71-2.45-2.12-2.45
			c-1.04,0-1.76,0.32-2.16,0.96c-0.4,0.64-0.6,1.57-0.6,2.77v5.35H381V4.64h1.37l0.25,1.41h0.1c0.32-0.54,0.75-0.94,1.3-1.2
			c0.55-0.26,1.13-0.4,1.74-0.4c1.62,0,2.67,0.58,3.16,1.73h0.1c0.35-0.59,0.82-1.03,1.42-1.31C391.03,4.59,391.66,4.45,392.33,4.45
			z"/>
		<path fill="#CCCCCC" d="M403,4.45c0.89,0,1.65,0.19,2.28,0.58c0.64,0.39,1.12,0.93,1.46,1.63s0.51,1.52,0.51,2.46v1.02h-7.07
			c0.03,1.17,0.32,2.06,0.9,2.67c0.57,0.61,1.37,0.92,2.4,0.92c0.65,0,1.24-0.06,1.74-0.18c0.51-0.12,1.03-0.3,1.57-0.53v1.48
			c-0.53,0.23-1.05,0.4-1.56,0.51c-0.51,0.11-1.12,0.16-1.83,0.16c-0.98,0-1.84-0.2-2.59-0.6c-0.75-0.4-1.34-0.99-1.75-1.78
			c-0.42-0.79-0.63-1.76-0.63-2.9c0-1.13,0.19-2.1,0.57-2.91c0.38-0.81,0.91-1.43,1.6-1.87C401.29,4.66,402.08,4.45,403,4.45z
			 M402.98,5.83c-0.81,0-1.45,0.26-1.92,0.78s-0.75,1.24-0.84,2.17h5.26c-0.01-0.87-0.22-1.58-0.62-2.13
			C404.47,6.11,403.84,5.83,402.98,5.83z"/>
		<path fill="#CCCCCC" d="M290.66,29.78c0-1.3,0.19-2.56,0.57-3.77c0.38-1.21,0.97-2.3,1.78-3.27h1.33c-0.75,1-1.31,2.11-1.69,3.31
			c-0.38,1.21-0.57,2.44-0.57,3.71c0,1.24,0.19,2.45,0.57,3.64c0.38,1.19,0.94,2.29,1.67,3.29h-1.31c-0.81-0.94-1.41-2-1.78-3.19
			C290.85,32.31,290.66,31.07,290.66,29.78z"/>
		<path fill="#CCCCCC" d="M297.59,34.16h-1.41V22h1.41V34.16z"/>
		<path fill="#CCCCCC" d="M307.77,29.86c0,1.42-0.36,2.52-1.08,3.3c-0.72,0.78-1.69,1.17-2.92,1.17c-0.76,0-1.43-0.17-2.02-0.52
			s-1.06-0.85-1.4-1.52c-0.34-0.67-0.51-1.47-0.51-2.42c0-1.42,0.36-2.51,1.07-3.28c0.71-0.77,1.69-1.15,2.91-1.15
			c0.78,0,1.46,0.17,2.06,0.52c0.59,0.35,1.06,0.85,1.39,1.5C307.6,28.1,307.77,28.91,307.77,29.86z M301.29,29.86
			c0,1.01,0.2,1.82,0.6,2.41s1.04,0.89,1.91,0.89c0.86,0,1.5-0.3,1.9-0.89s0.61-1.39,0.61-2.41c0-1.01-0.2-1.81-0.61-2.38
			s-1.05-0.86-1.92-0.86c-0.88,0-1.51,0.29-1.9,0.86C301.49,28.05,301.29,28.84,301.29,29.86z"/>
		<path fill="#CCCCCC" d="M315.21,29.31c-0.14-0.44-0.26-0.87-0.36-1.29c-0.1-0.42-0.18-0.75-0.23-0.98h-0.06
			c-0.04,0.23-0.11,0.56-0.21,0.98c-0.1,0.42-0.22,0.86-0.37,1.3l-1.54,4.82h-1.6l-2.35-8.58h1.46l1.18,4.58
			c0.12,0.46,0.23,0.92,0.34,1.39c0.11,0.47,0.18,0.86,0.22,1.17h0.06c0.04-0.18,0.09-0.41,0.15-0.67s0.13-0.55,0.2-0.84
			s0.15-0.56,0.22-0.79l1.52-4.83h1.54l1.47,4.83c0.12,0.36,0.23,0.76,0.34,1.18c0.11,0.43,0.19,0.79,0.23,1.1h0.06
			c0.03-0.27,0.1-0.63,0.22-1.1c0.11-0.47,0.23-0.95,0.36-1.44l1.2-4.58h1.44l-2.38,8.58h-1.65L315.21,29.31z"/>
		<path fill="#CCCCCC" d="M325.56,25.42c0.74,0,1.37,0.16,1.9,0.48c0.53,0.32,0.93,0.77,1.22,1.35c0.28,0.58,0.42,1.26,0.42,2.04
			v0.85h-5.87c0.02,0.97,0.27,1.71,0.74,2.22c0.47,0.51,1.14,0.76,1.99,0.76c0.54,0,1.03-0.05,1.45-0.15s0.86-0.25,1.3-0.44v1.23
			c-0.44,0.19-0.87,0.33-1.3,0.42s-0.93,0.14-1.52,0.14c-0.81,0-1.53-0.17-2.15-0.5s-1.11-0.82-1.46-1.48
			c-0.35-0.66-0.52-1.46-0.52-2.41c0-0.94,0.16-1.74,0.47-2.42c0.31-0.67,0.76-1.19,1.33-1.55
			C324.14,25.61,324.8,25.42,325.56,25.42z M325.54,26.58c-0.67,0-1.2,0.22-1.59,0.65c-0.39,0.43-0.62,1.03-0.7,1.8h4.37
			c-0.01-0.73-0.18-1.31-0.51-1.77C326.78,26.8,326.26,26.58,325.54,26.58z"/>
		<path fill="#CCCCCC" d="M335.27,25.42c0.16,0,0.33,0.01,0.52,0.02s0.35,0.04,0.49,0.07l-0.18,1.3c-0.14-0.03-0.29-0.06-0.46-0.08
			s-0.32-0.03-0.47-0.03c-0.44,0-0.85,0.12-1.23,0.36c-0.38,0.24-0.69,0.58-0.92,1.01s-0.34,0.94-0.34,1.51v4.58h-1.41v-8.58h1.15
			l0.16,1.57h0.06c0.28-0.47,0.63-0.87,1.07-1.22C334.16,25.59,334.68,25.42,335.27,25.42z"/>
		<path fill="#CCCCCC" d="M342.76,22.37c0.21,0,0.4,0.07,0.57,0.22s0.25,0.37,0.25,0.68c0,0.3-0.08,0.52-0.25,0.67
			c-0.17,0.15-0.35,0.22-0.57,0.22c-0.23,0-0.43-0.07-0.59-0.22c-0.16-0.15-0.24-0.37-0.24-0.67c0-0.31,0.08-0.54,0.24-0.68
			C342.33,22.44,342.53,22.37,342.76,22.37z M343.45,25.58v8.58h-1.41v-8.58H343.45z"/>
		<path fill="#CCCCCC" d="M351.75,31.79c0,0.83-0.31,1.46-0.93,1.89c-0.62,0.43-1.45,0.64-2.5,0.64c-0.6,0-1.11-0.05-1.54-0.14
			c-0.43-0.1-0.81-0.23-1.14-0.4V32.5c0.34,0.17,0.75,0.33,1.24,0.47s0.98,0.22,1.48,0.22c0.71,0,1.23-0.11,1.55-0.34
			s0.48-0.54,0.48-0.92c0-0.21-0.06-0.4-0.18-0.58c-0.12-0.17-0.33-0.34-0.63-0.51c-0.3-0.17-0.74-0.36-1.3-0.58
			c-0.55-0.21-1.03-0.43-1.42-0.64s-0.7-0.47-0.91-0.77c-0.21-0.3-0.32-0.68-0.32-1.15c0-0.73,0.3-1.29,0.89-1.68
			c0.59-0.39,1.37-0.59,2.33-0.59c0.52,0,1.01,0.05,1.46,0.15c0.45,0.1,0.88,0.24,1.27,0.42l-0.48,1.12
			c-0.36-0.15-0.74-0.28-1.14-0.38s-0.8-0.16-1.22-0.16c-0.58,0-1.02,0.09-1.32,0.28c-0.3,0.19-0.46,0.44-0.46,0.76
			c0,0.23,0.07,0.43,0.21,0.6c0.14,0.17,0.37,0.33,0.7,0.48c0.33,0.15,0.76,0.34,1.3,0.55c0.54,0.2,1.01,0.41,1.39,0.62
			c0.38,0.21,0.68,0.47,0.88,0.78C351.65,30.95,351.75,31.33,351.75,31.79z"/>
		<path fill="#CCCCCC" d="M359.4,24.96c0,0.36-0.01,0.7-0.02,1.02c-0.02,0.31-0.03,0.56-0.06,0.74h0.08
			c0.25-0.36,0.58-0.67,1.01-0.91c0.43-0.25,0.98-0.37,1.65-0.37c1.07,0,1.92,0.37,2.57,1.11c0.65,0.74,0.97,1.85,0.97,3.32
			c0,1.47-0.33,2.58-0.98,3.33c-0.65,0.75-1.5,1.12-2.56,1.12c-0.67,0-1.22-0.12-1.65-0.37s-0.76-0.54-1.01-0.88h-0.11L359,34.16
			h-1.01V22h1.41V24.96z M361.82,26.61c-0.91,0-1.54,0.26-1.89,0.78c-0.35,0.52-0.53,1.33-0.53,2.43v0.06
			c0,1.06,0.17,1.86,0.52,2.42c0.35,0.56,0.99,0.84,1.93,0.84c0.77,0,1.34-0.28,1.72-0.85c0.38-0.57,0.57-1.38,0.57-2.45
			C364.14,27.69,363.36,26.61,361.82,26.61z"/>
		<path fill="#CCCCCC" d="M371.14,25.42c0.74,0,1.37,0.16,1.9,0.48c0.53,0.32,0.93,0.77,1.22,1.35c0.28,0.58,0.42,1.26,0.42,2.04
			v0.85h-5.87c0.02,0.97,0.27,1.71,0.74,2.22c0.47,0.51,1.14,0.76,1.99,0.76c0.54,0,1.03-0.05,1.45-0.15s0.86-0.25,1.3-0.44v1.23
			c-0.44,0.19-0.87,0.33-1.3,0.42s-0.93,0.14-1.52,0.14c-0.81,0-1.53-0.17-2.15-0.5s-1.11-0.82-1.46-1.48
			c-0.35-0.66-0.52-1.46-0.52-2.41c0-0.94,0.16-1.74,0.47-2.42c0.31-0.67,0.76-1.19,1.33-1.55
			C369.72,25.61,370.39,25.42,371.14,25.42z M371.13,26.58c-0.67,0-1.2,0.22-1.59,0.65c-0.39,0.43-0.62,1.03-0.7,1.8h4.37
			c-0.01-0.73-0.18-1.31-0.51-1.77C372.37,26.8,371.84,26.58,371.13,26.58z"/>
		<path fill="#CCCCCC" d="M379.72,33.17c0.21,0,0.43-0.02,0.66-0.06c0.22-0.04,0.41-0.08,0.54-0.12v1.07
			c-0.15,0.07-0.36,0.14-0.64,0.18c-0.28,0.05-0.54,0.07-0.8,0.07c-0.45,0-0.86-0.08-1.24-0.23c-0.38-0.15-0.69-0.42-0.92-0.81
			c-0.23-0.38-0.35-0.92-0.35-1.62v-4.99h-1.22V26l1.23-0.56l0.56-1.82h0.83v1.97h2.48v1.09h-2.48v4.96c0,0.52,0.13,0.91,0.38,1.16
			C379,33.04,379.33,33.17,379.72,33.17z"/>
		<path fill="#CCCCCC" d="M385.5,33.17c0.21,0,0.43-0.02,0.66-0.06c0.22-0.04,0.41-0.08,0.54-0.12v1.07
			c-0.15,0.07-0.36,0.14-0.64,0.18c-0.28,0.05-0.54,0.07-0.8,0.07c-0.45,0-0.86-0.08-1.24-0.23c-0.38-0.15-0.69-0.42-0.92-0.81
			c-0.23-0.38-0.35-0.92-0.35-1.62v-4.99h-1.22V26l1.23-0.56l0.56-1.82h0.83v1.97h2.48v1.09h-2.48v4.96c0,0.52,0.13,0.91,0.38,1.16
			C384.78,33.04,385.1,33.17,385.5,33.17z"/>
		<path fill="#CCCCCC" d="M391.72,25.42c0.74,0,1.37,0.16,1.9,0.48c0.53,0.32,0.93,0.77,1.22,1.35c0.28,0.58,0.42,1.26,0.42,2.04
			v0.85h-5.87c0.02,0.97,0.27,1.71,0.74,2.22c0.47,0.51,1.14,0.76,1.99,0.76c0.54,0,1.03-0.05,1.45-0.15s0.86-0.25,1.3-0.44v1.23
			c-0.44,0.19-0.87,0.33-1.3,0.42s-0.93,0.14-1.52,0.14c-0.81,0-1.53-0.17-2.15-0.5s-1.11-0.82-1.46-1.48
			c-0.35-0.66-0.52-1.46-0.52-2.41c0-0.94,0.16-1.74,0.47-2.42c0.31-0.67,0.76-1.19,1.33-1.55
			C390.3,25.61,390.96,25.42,391.72,25.42z M391.7,26.58c-0.67,0-1.2,0.22-1.59,0.65c-0.39,0.43-0.62,1.03-0.7,1.8h4.37
			c-0.01-0.73-0.18-1.31-0.51-1.77C392.94,26.8,392.42,26.58,391.7,26.58z"/>
		<path fill="#CCCCCC" d="M401.43,25.42c0.16,0,0.33,0.01,0.52,0.02s0.35,0.04,0.49,0.07l-0.18,1.3c-0.14-0.03-0.29-0.06-0.46-0.08
			s-0.32-0.03-0.47-0.03c-0.44,0-0.85,0.12-1.23,0.36c-0.38,0.24-0.69,0.58-0.92,1.01s-0.34,0.94-0.34,1.51v4.58h-1.41v-8.58h1.15
			l0.16,1.57h0.06c0.28-0.47,0.63-0.87,1.07-1.22C400.32,25.59,400.83,25.42,401.43,25.42z"/>
		<path fill="#CCCCCC" d="M406.84,29.78c0,1.29-0.19,2.53-0.57,3.72c-0.38,1.19-0.97,2.25-1.78,3.19h-1.31
			c0.74-1,1.29-2.1,1.67-3.29c0.38-1.19,0.57-2.4,0.57-3.64c0-1.27-0.19-2.51-0.57-3.71c-0.38-1.21-0.94-2.31-1.69-3.31h1.33
			c0.81,0.97,1.41,2.06,1.78,3.27C406.65,27.22,406.84,28.48,406.84,29.78z"/>
	</g>
	<g>
		<path fill="#CCCCCC" d="M8.52,285.96H0.84v-13.75h7.68v1.52H2.57v4.29h5.6v1.5h-5.6v4.91h5.95V285.96z"/>
		<path fill="#CCCCCC" d="M15.22,275.47c1.26,0,2.19,0.28,2.79,0.83c0.6,0.55,0.91,1.43,0.91,2.64v7.03h-1.23l-0.33-1.46h-0.08
			c-0.45,0.56-0.92,0.98-1.42,1.25s-1.18,0.4-2.05,0.4c-0.94,0-1.71-0.25-2.33-0.74s-0.92-1.27-0.92-2.32c0-1.03,0.4-1.82,1.21-2.38
			c0.81-0.56,2.05-0.86,3.74-0.91l1.75-0.06v-0.62c0-0.86-0.19-1.46-0.56-1.79c-0.37-0.33-0.9-0.5-1.58-0.5
			c-0.54,0-1.05,0.08-1.54,0.24c-0.49,0.16-0.94,0.34-1.37,0.55l-0.52-1.27c0.45-0.24,0.98-0.45,1.6-0.63S14.55,275.47,15.22,275.47
			z M15.72,280.97c-1.28,0.05-2.17,0.26-2.67,0.62s-0.74,0.87-0.74,1.52c0,0.58,0.18,1,0.53,1.27s0.81,0.4,1.36,0.4
			c0.87,0,1.6-0.24,2.18-0.72c0.58-0.48,0.87-1.22,0.87-2.22v-0.92L15.72,280.97z"/>
		<path fill="#CCCCCC" d="M25.77,275.45c0.68,0,1.29,0.13,1.84,0.39c0.55,0.26,1.01,0.65,1.4,1.17h0.1l0.23-1.37h1.35v10.49
			c0,1.48-0.38,2.59-1.13,3.33c-0.75,0.74-1.92,1.12-3.5,1.12c-1.52,0-2.75-0.22-3.72-0.65v-1.56c1.01,0.54,2.29,0.81,3.81,0.81
			c0.89,0,1.58-0.26,2.09-0.78c0.51-0.52,0.76-1.23,0.76-2.13v-0.4c0-0.15,0.01-0.38,0.02-0.66c0.01-0.29,0.03-0.49,0.04-0.61h-0.08
			c-0.69,1.04-1.76,1.56-3.2,1.56c-1.34,0-2.38-0.47-3.13-1.41c-0.75-0.94-1.13-2.25-1.13-3.93c0-1.64,0.38-2.95,1.13-3.92
			S24.45,275.45,25.77,275.45z M26,276.87c-0.86,0-1.53,0.34-2,1.03c-0.48,0.69-0.71,1.67-0.71,2.94s0.23,2.24,0.7,2.92
			c0.47,0.67,1.15,1.01,2.05,1.01c1.04,0,1.8-0.28,2.27-0.84c0.47-0.56,0.71-1.46,0.71-2.71v-0.4c0-1.41-0.24-2.42-0.73-3.03
			S27.04,276.87,26,276.87z"/>
		<path fill="#CCCCCC" d="M35.65,285.96h-1.69v-14.63h1.69V285.96z"/>
		<path fill="#CCCCCC" d="M42.91,275.45c0.89,0,1.65,0.19,2.28,0.58c0.64,0.39,1.12,0.93,1.46,1.63s0.51,1.52,0.51,2.46v1.02H40.1
			c0.03,1.17,0.32,2.06,0.9,2.67c0.57,0.61,1.37,0.92,2.4,0.92c0.65,0,1.24-0.06,1.74-0.18c0.51-0.12,1.03-0.3,1.57-0.53v1.48
			c-0.53,0.23-1.05,0.4-1.56,0.51c-0.51,0.11-1.12,0.16-1.83,0.16c-0.98,0-1.84-0.2-2.59-0.6c-0.75-0.4-1.34-0.99-1.75-1.78
			c-0.42-0.79-0.63-1.76-0.63-2.9c0-1.13,0.19-2.1,0.57-2.91c0.38-0.81,0.91-1.43,1.6-1.87C41.2,275.66,42,275.45,42.91,275.45z
			 M42.89,276.83c-0.81,0-1.45,0.26-1.92,0.78s-0.75,1.24-0.84,2.17h5.26c-0.01-0.87-0.22-1.58-0.62-2.13
			C44.38,277.11,43.75,276.83,42.89,276.83z"/>
		<path fill="#CCCCCC" d="M54.37,285.96h-1.73v-12.23h-4.29v-1.52h10.3v1.52h-4.27V285.96z"/>
		<path fill="#CCCCCC" d="M61.36,271.77c0.26,0,0.48,0.09,0.68,0.26c0.2,0.17,0.3,0.45,0.3,0.82c0,0.36-0.1,0.63-0.3,0.81
			c-0.2,0.18-0.43,0.27-0.68,0.27c-0.28,0-0.52-0.09-0.71-0.27c-0.19-0.18-0.29-0.45-0.29-0.81c0-0.37,0.1-0.65,0.29-0.82
			C60.84,271.85,61.08,271.77,61.36,271.77z M62.19,275.64v10.32h-1.69v-10.32H62.19z"/>
		<path fill="#CCCCCC" d="M76.78,275.45c1.17,0,2.04,0.3,2.62,0.9c0.58,0.6,0.87,1.56,0.87,2.9v6.72h-1.68v-6.64
			c0-1.63-0.7-2.45-2.1-2.45c-1,0-1.72,0.29-2.15,0.87s-0.65,1.42-0.65,2.52v5.7h-1.68v-6.64c0-1.63-0.71-2.45-2.12-2.45
			c-1.04,0-1.76,0.32-2.16,0.96c-0.4,0.64-0.6,1.57-0.6,2.77v5.35h-1.69v-10.32h1.37l0.25,1.41h0.1c0.32-0.54,0.75-0.94,1.3-1.2
			c0.55-0.26,1.13-0.4,1.74-0.4c1.62,0,2.67,0.58,3.16,1.73h0.1c0.35-0.59,0.82-1.03,1.42-1.31
			C75.48,275.59,76.11,275.45,76.78,275.45z"/>
		<path fill="#CCCCCC" d="M87.45,275.45c0.89,0,1.65,0.19,2.28,0.58c0.64,0.39,1.12,0.93,1.46,1.63s0.51,1.52,0.51,2.46v1.02h-7.07
			c0.03,1.17,0.32,2.06,0.9,2.67c0.57,0.61,1.37,0.92,2.4,0.92c0.65,0,1.24-0.06,1.74-0.18c0.51-0.12,1.03-0.3,1.57-0.53v1.48
			c-0.53,0.23-1.05,0.4-1.56,0.51c-0.51,0.11-1.12,0.16-1.83,0.16c-0.98,0-1.84-0.2-2.59-0.6c-0.75-0.4-1.34-0.99-1.75-1.78
			c-0.42-0.79-0.63-1.76-0.63-2.9c0-1.13,0.19-2.1,0.57-2.91c0.38-0.81,0.91-1.43,1.6-1.87C85.74,275.66,86.54,275.45,87.45,275.45z
			 M87.43,276.83c-0.81,0-1.45,0.26-1.92,0.78s-0.75,1.24-0.84,2.17h5.26c-0.01-0.87-0.22-1.58-0.62-2.13
			C88.92,277.11,88.29,276.83,87.43,276.83z"/>
	</g>
	<g>
		<path fill="#CCCCCC" d="M573.8,285.96h-1.66v-9.61c0-0.55,0.01-0.99,0.02-1.33s0.03-0.68,0.06-1.04
			c-0.21,0.21-0.39,0.38-0.56,0.52c-0.17,0.14-0.38,0.32-0.64,0.54l-1.46,1.19l-0.89-1.14l3.72-2.89h1.41V285.96z"/>
		<path fill="#CCCCCC" d="M583.47,272.02c1.21,0,2.19,0.28,2.97,0.85c0.77,0.56,1.16,1.38,1.16,2.45c0,0.55-0.12,1.03-0.36,1.44
			c-0.24,0.41-0.56,0.77-0.95,1.09c-0.4,0.31-0.83,0.59-1.31,0.84c0.56,0.27,1.08,0.57,1.54,0.91c0.46,0.34,0.83,0.73,1.11,1.18
			c0.28,0.45,0.41,0.99,0.41,1.62c0,1.16-0.41,2.07-1.22,2.74c-0.82,0.67-1.91,1.01-3.28,1.01c-1.48,0-2.61-0.32-3.41-0.97
			c-0.8-0.65-1.19-1.56-1.19-2.73c0-0.63,0.13-1.17,0.4-1.64c0.26-0.46,0.61-0.86,1.05-1.19c0.44-0.33,0.91-0.62,1.41-0.85
			c-0.67-0.39-1.24-0.85-1.7-1.4c-0.47-0.55-0.7-1.24-0.7-2.09c0-0.71,0.18-1.3,0.54-1.78c0.36-0.48,0.85-0.85,1.46-1.11
			C581.99,272.15,582.69,272.02,583.47,272.02z M580.58,282.47c0,0.67,0.24,1.22,0.71,1.67s1.21,0.66,2.2,0.66
			c0.94,0,1.65-0.22,2.15-0.66s0.74-1.02,0.74-1.72c0-0.67-0.26-1.22-0.79-1.67c-0.53-0.44-1.23-0.83-2.1-1.17l-0.31-0.12
			c-0.85,0.36-1.49,0.77-1.94,1.24C580.8,281.18,580.58,281.77,580.58,282.47z M583.45,273.39c-0.71,0-1.29,0.17-1.74,0.51
			s-0.68,0.83-0.68,1.47c0,0.48,0.11,0.87,0.34,1.19s0.53,0.59,0.91,0.82c0.39,0.22,0.81,0.44,1.27,0.65
			c0.67-0.28,1.23-0.62,1.69-1.02s0.68-0.94,0.68-1.64c0-0.64-0.22-1.13-0.67-1.47C584.79,273.56,584.2,273.39,583.45,273.39z"/>
		<path fill="#CCCCCC" d="M591.62,285.96l5.64-12.21h-7.41v-1.54h9.22v1.31l-5.58,12.44H591.62z"/>
		<path fill="#CCCCCC" d="M610.08,279.07c0,1.48-0.15,2.74-0.46,3.8s-0.8,1.87-1.46,2.44c-0.67,0.56-1.55,0.85-2.66,0.85
			c-1.55,0-2.7-0.63-3.44-1.88c-0.74-1.25-1.11-2.99-1.11-5.21c0-1.49,0.15-2.76,0.45-3.81s0.79-1.86,1.45-2.42
			c0.67-0.56,1.55-0.84,2.64-0.84c1.54,0,2.69,0.62,3.45,1.86C609.7,275.1,610.08,276.83,610.08,279.07z M602.65,279.07
			c0,1.89,0.21,3.3,0.65,4.24s1.17,1.41,2.21,1.41c1.03,0,1.76-0.47,2.2-1.4c0.44-0.93,0.66-2.35,0.66-4.25
			c0-1.87-0.22-3.28-0.66-4.22s-1.18-1.41-2.2-1.41c-1.04,0-1.77,0.47-2.21,1.41S602.65,277.19,602.65,279.07z"/>
		<path fill="#CCCCCC" d="M628.99,275.45c1.17,0,2.04,0.3,2.62,0.9c0.58,0.6,0.87,1.56,0.87,2.9v6.72h-1.68v-6.64
			c0-1.63-0.7-2.45-2.1-2.45c-1,0-1.72,0.29-2.15,0.87s-0.65,1.42-0.65,2.52v5.7h-1.68v-6.64c0-1.63-0.71-2.45-2.12-2.45
			c-1.04,0-1.76,0.32-2.16,0.96c-0.4,0.64-0.6,1.57-0.6,2.77v5.35h-1.69v-10.32h1.37l0.25,1.41h0.1c0.32-0.54,0.75-0.94,1.3-1.2
			c0.55-0.26,1.13-0.4,1.74-0.4c1.62,0,2.67,0.58,3.16,1.73h0.1c0.35-0.59,0.82-1.03,1.42-1.31
			C627.69,275.59,628.32,275.45,628.99,275.45z"/>
		<path fill="#CCCCCC" d="M642.4,283.11c0,1-0.37,1.76-1.12,2.27c-0.74,0.51-1.75,0.77-3,0.77c-0.72,0-1.34-0.06-1.86-0.17
			c-0.52-0.12-0.98-0.28-1.38-0.48v-1.54c0.41,0.21,0.91,0.39,1.49,0.57c0.58,0.17,1.18,0.26,1.78,0.26c0.86,0,1.48-0.14,1.87-0.41
			c0.39-0.28,0.58-0.65,0.58-1.11c0-0.26-0.07-0.49-0.21-0.69c-0.14-0.21-0.4-0.41-0.76-0.62c-0.37-0.21-0.89-0.44-1.57-0.69
			c-0.67-0.26-1.24-0.51-1.71-0.77c-0.48-0.26-0.84-0.56-1.1-0.92s-0.39-0.82-0.39-1.39c0-0.87,0.36-1.55,1.07-2.02
			c0.71-0.47,1.65-0.71,2.8-0.71c0.63,0,1.22,0.06,1.76,0.18c0.55,0.12,1.06,0.29,1.53,0.51l-0.58,1.35
			c-0.44-0.18-0.89-0.33-1.37-0.46c-0.48-0.13-0.96-0.19-1.46-0.19c-0.69,0-1.22,0.11-1.59,0.34s-0.55,0.53-0.55,0.91
			c0,0.28,0.08,0.52,0.25,0.72c0.17,0.2,0.45,0.39,0.84,0.58c0.39,0.19,0.91,0.41,1.57,0.66c0.65,0.24,1.21,0.49,1.68,0.75
			c0.46,0.26,0.82,0.57,1.06,0.93C642.27,282.1,642.4,282.56,642.4,283.11z"/>
	</g>
	<g>
		<path fill="#CCCCCC" d="M97.04,397.07c0,1.48-0.15,2.74-0.46,3.8s-0.8,1.87-1.46,2.44c-0.67,0.57-1.55,0.85-2.66,0.85
			c-1.55,0-2.7-0.62-3.44-1.88s-1.11-2.99-1.11-5.21c0-1.49,0.15-2.76,0.45-3.81s0.79-1.86,1.45-2.42c0.67-0.56,1.55-0.84,2.64-0.84
			c1.54,0,2.69,0.62,3.45,1.86C96.66,393.1,97.04,394.83,97.04,397.07z M89.61,397.07c0,1.89,0.21,3.3,0.65,4.24
			s1.17,1.41,2.21,1.41c1.03,0,1.76-0.47,2.2-1.4c0.44-0.93,0.66-2.35,0.66-4.25c0-1.88-0.22-3.28-0.66-4.22
			c-0.44-0.94-1.18-1.41-2.2-1.41c-1.04,0-1.77,0.47-2.21,1.41C89.82,393.79,89.61,395.19,89.61,397.07z"/>
		<path fill="#CCCCCC" d="M115.95,393.45c1.17,0,2.04,0.3,2.62,0.9c0.58,0.6,0.87,1.56,0.87,2.9v6.72h-1.68v-6.64
			c0-1.63-0.7-2.45-2.1-2.45c-1,0-1.72,0.29-2.15,0.87s-0.65,1.42-0.65,2.52v5.7h-1.68v-6.64c0-1.63-0.71-2.45-2.12-2.45
			c-1.04,0-1.76,0.32-2.16,0.96c-0.4,0.64-0.6,1.57-0.6,2.77v5.35h-1.69v-10.32h1.37l0.25,1.41h0.1c0.32-0.54,0.75-0.94,1.3-1.2
			c0.55-0.26,1.13-0.4,1.74-0.4c1.62,0,2.67,0.58,3.16,1.73h0.1c0.35-0.59,0.82-1.03,1.42-1.31
			C114.65,393.59,115.28,393.45,115.95,393.45z"/>
		<path fill="#CCCCCC" d="M129.35,401.11c0,1-0.37,1.76-1.12,2.27s-1.75,0.77-3,0.77c-0.72,0-1.34-0.06-1.86-0.17
			c-0.52-0.12-0.98-0.28-1.38-0.48v-1.54c0.41,0.21,0.91,0.39,1.49,0.57c0.58,0.17,1.18,0.26,1.78,0.26c0.86,0,1.48-0.14,1.87-0.41
			c0.39-0.28,0.58-0.64,0.58-1.11c0-0.26-0.07-0.49-0.21-0.69c-0.14-0.21-0.4-0.41-0.76-0.62s-0.89-0.44-1.57-0.69
			c-0.67-0.26-1.24-0.51-1.71-0.77c-0.48-0.26-0.84-0.57-1.1-0.92s-0.39-0.82-0.39-1.39c0-0.87,0.36-1.55,1.07-2.02
			s1.65-0.71,2.8-0.71c0.63,0,1.22,0.06,1.76,0.18c0.55,0.12,1.06,0.29,1.53,0.51l-0.58,1.35c-0.44-0.18-0.89-0.33-1.37-0.46
			c-0.48-0.13-0.96-0.19-1.46-0.19c-0.69,0-1.22,0.11-1.59,0.34s-0.55,0.53-0.55,0.91c0,0.28,0.08,0.52,0.25,0.72
			c0.17,0.2,0.45,0.39,0.84,0.58s0.91,0.41,1.57,0.67c0.65,0.24,1.21,0.49,1.68,0.75c0.46,0.26,0.82,0.57,1.06,0.93
			C129.23,400.1,129.35,400.56,129.35,401.11z"/>
	</g>
	<g>
		<path fill="#CCCCCC" d="M200.26,395.53c1.41,0,2.54,0.35,3.37,1.06c0.83,0.71,1.25,1.7,1.25,2.98c0,1.42-0.45,2.55-1.36,3.36
			c-0.91,0.82-2.17,1.22-3.78,1.22c-0.71,0-1.37-0.06-1.99-0.19c-0.62-0.13-1.15-0.31-1.57-0.56v-1.6c0.46,0.28,1.02,0.5,1.68,0.67
			s1.29,0.24,1.9,0.24c1.01,0,1.83-0.24,2.46-0.72s0.93-1.23,0.93-2.24c0-0.9-0.28-1.59-0.83-2.07c-0.55-0.48-1.42-0.72-2.62-0.72
			c-0.36,0-0.77,0.03-1.23,0.1c-0.46,0.06-0.83,0.13-1.12,0.19l-0.85-0.54l0.52-6.49h6.89v1.54h-5.45l-0.33,3.99
			c0.22-0.04,0.51-0.08,0.89-0.13C199.4,395.55,199.81,395.53,200.26,395.53z"/>
		<path fill="#CCCCCC" d="M216.05,397.07c0,1.48-0.15,2.74-0.46,3.8s-0.8,1.87-1.46,2.44c-0.67,0.57-1.55,0.85-2.66,0.85
			c-1.55,0-2.7-0.62-3.44-1.88s-1.11-2.99-1.11-5.21c0-1.49,0.15-2.76,0.45-3.81s0.79-1.86,1.45-2.42c0.67-0.56,1.55-0.84,2.64-0.84
			c1.54,0,2.69,0.62,3.45,1.86C215.67,393.1,216.05,394.83,216.05,397.07z M208.62,397.07c0,1.89,0.21,3.3,0.65,4.24
			s1.17,1.41,2.21,1.41c1.03,0,1.76-0.47,2.2-1.4c0.44-0.93,0.66-2.35,0.66-4.25c0-1.88-0.22-3.28-0.66-4.22
			c-0.44-0.94-1.18-1.41-2.2-1.41c-1.04,0-1.77,0.47-2.21,1.41C208.84,393.79,208.62,395.19,208.62,397.07z"/>
		<path fill="#CCCCCC" d="M227.07,397.07c0,1.48-0.15,2.74-0.46,3.8s-0.8,1.87-1.46,2.44c-0.67,0.57-1.55,0.85-2.66,0.85
			c-1.55,0-2.7-0.62-3.44-1.88s-1.11-2.99-1.11-5.21c0-1.49,0.15-2.76,0.45-3.81s0.79-1.86,1.45-2.42c0.67-0.56,1.55-0.84,2.64-0.84
			c1.54,0,2.69,0.62,3.45,1.86C226.69,393.1,227.07,394.83,227.07,397.07z M219.63,397.07c0,1.89,0.21,3.3,0.65,4.24
			s1.17,1.41,2.21,1.41c1.03,0,1.76-0.47,2.2-1.4c0.44-0.93,0.66-2.35,0.66-4.25c0-1.88-0.22-3.28-0.66-4.22
			c-0.44-0.94-1.18-1.41-2.2-1.41c-1.04,0-1.77,0.47-2.21,1.41C219.85,393.79,219.63,395.19,219.63,397.07z"/>
		<path fill="#CCCCCC" d="M245.98,393.45c1.17,0,2.04,0.3,2.62,0.9c0.58,0.6,0.87,1.56,0.87,2.9v6.72h-1.68v-6.64
			c0-1.63-0.7-2.45-2.1-2.45c-1,0-1.72,0.29-2.15,0.87s-0.65,1.42-0.65,2.52v5.7h-1.68v-6.64c0-1.63-0.71-2.45-2.12-2.45
			c-1.04,0-1.76,0.32-2.16,0.96c-0.4,0.64-0.6,1.57-0.6,2.77v5.35h-1.69v-10.32h1.37l0.25,1.41h0.1c0.32-0.54,0.75-0.94,1.3-1.2
			c0.55-0.26,1.13-0.4,1.74-0.4c1.62,0,2.67,0.58,3.16,1.73h0.1c0.35-0.59,0.82-1.03,1.42-1.31
			C244.68,393.59,245.31,393.45,245.98,393.45z"/>
		<path fill="#CCCCCC" d="M259.38,401.11c0,1-0.37,1.76-1.12,2.27s-1.75,0.77-3,0.77c-0.72,0-1.34-0.06-1.86-0.17
			c-0.52-0.12-0.98-0.28-1.38-0.48v-1.54c0.41,0.21,0.91,0.39,1.49,0.57c0.58,0.17,1.18,0.26,1.78,0.26c0.86,0,1.48-0.14,1.87-0.41
			c0.39-0.28,0.58-0.64,0.58-1.11c0-0.26-0.07-0.49-0.21-0.69c-0.14-0.21-0.4-0.41-0.76-0.62s-0.89-0.44-1.57-0.69
			c-0.67-0.26-1.24-0.51-1.71-0.77c-0.48-0.26-0.84-0.57-1.1-0.92s-0.39-0.82-0.39-1.39c0-0.87,0.36-1.55,1.07-2.02
			s1.65-0.71,2.8-0.71c0.63,0,1.22,0.06,1.76,0.18c0.55,0.12,1.06,0.29,1.53,0.51l-0.58,1.35c-0.44-0.18-0.89-0.33-1.37-0.46
			c-0.48-0.13-0.96-0.19-1.46-0.19c-0.69,0-1.22,0.11-1.59,0.34s-0.55,0.53-0.55,0.91c0,0.28,0.08,0.52,0.25,0.72
			c0.17,0.2,0.45,0.39,0.84,0.58s0.91,0.41,1.57,0.67c0.65,0.24,1.21,0.49,1.68,0.75c0.46,0.26,0.82,0.57,1.06,0.93
			C259.26,400.1,259.38,400.56,259.38,401.11z"/>
	</g>
	<g>
		<path fill="#CCCCCC" d="M316.8,403.96h-1.66v-9.61c0-0.55,0.01-1,0.02-1.33s0.03-0.68,0.06-1.04c-0.21,0.21-0.39,0.38-0.56,0.52
			c-0.17,0.14-0.38,0.32-0.64,0.54l-1.46,1.19l-0.89-1.14l3.72-2.89h1.41V403.96z"/>
		<path fill="#CCCCCC" d="M331.05,397.07c0,1.48-0.15,2.74-0.46,3.8s-0.8,1.87-1.46,2.44c-0.67,0.57-1.55,0.85-2.66,0.85
			c-1.55,0-2.7-0.62-3.44-1.88s-1.11-2.99-1.11-5.21c0-1.49,0.15-2.76,0.45-3.81s0.79-1.86,1.45-2.42c0.67-0.56,1.55-0.84,2.64-0.84
			c1.54,0,2.69,0.62,3.45,1.86C330.67,393.1,331.05,394.83,331.05,397.07z M323.62,397.07c0,1.89,0.21,3.3,0.65,4.24
			s1.17,1.41,2.21,1.41c1.03,0,1.76-0.47,2.2-1.4c0.44-0.93,0.66-2.35,0.66-4.25c0-1.88-0.22-3.28-0.66-4.22
			c-0.44-0.94-1.18-1.41-2.2-1.41c-1.04,0-1.77,0.47-2.21,1.41C323.84,393.79,323.62,395.19,323.62,397.07z"/>
		<path fill="#CCCCCC" d="M342.07,397.07c0,1.48-0.15,2.74-0.46,3.8s-0.8,1.87-1.46,2.44c-0.67,0.57-1.55,0.85-2.66,0.85
			c-1.55,0-2.7-0.62-3.44-1.88s-1.11-2.99-1.11-5.21c0-1.49,0.15-2.76,0.45-3.81s0.79-1.86,1.45-2.42c0.67-0.56,1.55-0.84,2.64-0.84
			c1.54,0,2.69,0.62,3.45,1.86C341.69,393.1,342.07,394.83,342.07,397.07z M334.63,397.07c0,1.89,0.21,3.3,0.65,4.24
			s1.17,1.41,2.21,1.41c1.03,0,1.76-0.47,2.2-1.4c0.44-0.93,0.66-2.35,0.66-4.25c0-1.88-0.22-3.28-0.66-4.22
			c-0.44-0.94-1.18-1.41-2.2-1.41c-1.04,0-1.77,0.47-2.21,1.41C334.85,393.79,334.63,395.19,334.63,397.07z"/>
		<path fill="#CCCCCC" d="M353.08,397.07c0,1.48-0.15,2.74-0.46,3.8s-0.8,1.87-1.46,2.44c-0.67,0.57-1.55,0.85-2.66,0.85
			c-1.55,0-2.7-0.62-3.44-1.88s-1.11-2.99-1.11-5.21c0-1.49,0.15-2.76,0.45-3.81s0.79-1.86,1.45-2.42c0.67-0.56,1.55-0.84,2.64-0.84
			c1.54,0,2.69,0.62,3.45,1.86C352.7,393.1,353.08,394.83,353.08,397.07z M345.65,397.07c0,1.89,0.21,3.3,0.65,4.24
			s1.17,1.41,2.21,1.41c1.03,0,1.76-0.47,2.2-1.4c0.44-0.93,0.66-2.35,0.66-4.25c0-1.88-0.22-3.28-0.66-4.22
			c-0.44-0.94-1.18-1.41-2.2-1.41c-1.04,0-1.77,0.47-2.21,1.41C345.86,393.79,345.65,395.19,345.65,397.07z"/>
		<path fill="#CCCCCC" d="M371.99,393.45c1.17,0,2.04,0.3,2.62,0.9c0.58,0.6,0.87,1.56,0.87,2.9v6.72h-1.68v-6.64
			c0-1.63-0.7-2.45-2.1-2.45c-1,0-1.72,0.29-2.15,0.87s-0.65,1.42-0.65,2.52v5.7h-1.68v-6.64c0-1.63-0.71-2.45-2.12-2.45
			c-1.04,0-1.76,0.32-2.16,0.96c-0.4,0.64-0.6,1.57-0.6,2.77v5.35h-1.69v-10.32h1.37l0.25,1.41h0.1c0.32-0.54,0.75-0.94,1.3-1.2
			c0.55-0.26,1.13-0.4,1.74-0.4c1.62,0,2.67,0.58,3.16,1.73h0.1c0.35-0.59,0.82-1.03,1.42-1.31
			C370.69,393.59,371.32,393.45,371.99,393.45z"/>
		<path fill="#CCCCCC" d="M385.39,401.11c0,1-0.37,1.76-1.12,2.27s-1.75,0.77-3,0.77c-0.72,0-1.34-0.06-1.86-0.17
			c-0.52-0.12-0.98-0.28-1.38-0.48v-1.54c0.41,0.21,0.91,0.39,1.49,0.57c0.58,0.17,1.18,0.26,1.78,0.26c0.86,0,1.48-0.14,1.87-0.41
			c0.39-0.28,0.58-0.64,0.58-1.11c0-0.26-0.07-0.49-0.21-0.69c-0.14-0.21-0.4-0.41-0.76-0.62s-0.89-0.44-1.57-0.69
			c-0.67-0.26-1.24-0.51-1.71-0.77c-0.48-0.26-0.84-0.57-1.1-0.92s-0.39-0.82-0.39-1.39c0-0.87,0.36-1.55,1.07-2.02
			s1.65-0.71,2.8-0.71c0.63,0,1.22,0.06,1.76,0.18c0.55,0.12,1.06,0.29,1.53,0.51l-0.58,1.35c-0.44-0.18-0.89-0.33-1.37-0.46
			c-0.48-0.13-0.96-0.19-1.46-0.19c-0.69,0-1.22,0.11-1.59,0.34s-0.55,0.53-0.55,0.91c0,0.28,0.08,0.52,0.25,0.72
			c0.17,0.2,0.45,0.39,0.84,0.58s0.91,0.41,1.57,0.67c0.65,0.24,1.21,0.49,1.68,0.75c0.46,0.26,0.82,0.57,1.06,0.93
			C385.27,400.1,385.39,400.56,385.39,401.11z"/>
	</g>
	<g>
		<path fill="#CCCCCC" d="M435.8,403.96h-1.66v-9.61c0-0.55,0.01-1,0.02-1.33s0.03-0.68,0.06-1.04c-0.21,0.21-0.39,0.38-0.56,0.52
			c-0.17,0.14-0.38,0.32-0.64,0.54l-1.46,1.19l-0.89-1.14l3.72-2.89h1.41V403.96z"/>
		<path fill="#CCCCCC" d="M445.28,395.53c1.41,0,2.54,0.35,3.37,1.06c0.83,0.71,1.25,1.7,1.25,2.98c0,1.42-0.45,2.55-1.36,3.36
			c-0.91,0.82-2.17,1.22-3.78,1.22c-0.71,0-1.37-0.06-1.99-0.19c-0.62-0.13-1.15-0.31-1.57-0.56v-1.6c0.46,0.28,1.02,0.5,1.68,0.67
			s1.29,0.24,1.9,0.24c1.01,0,1.83-0.24,2.46-0.72s0.93-1.23,0.93-2.24c0-0.9-0.28-1.59-0.83-2.07c-0.55-0.48-1.42-0.72-2.62-0.72
			c-0.36,0-0.77,0.03-1.23,0.1c-0.46,0.06-0.83,0.13-1.12,0.19l-0.85-0.54l0.52-6.49h6.89v1.54h-5.45l-0.33,3.99
			c0.22-0.04,0.51-0.08,0.89-0.13C444.42,395.55,444.83,395.53,445.28,395.53z"/>
		<path fill="#CCCCCC" d="M461.07,397.07c0,1.48-0.15,2.74-0.46,3.8s-0.8,1.87-1.46,2.44c-0.67,0.57-1.55,0.85-2.66,0.85
			c-1.55,0-2.7-0.62-3.44-1.88s-1.11-2.99-1.11-5.21c0-1.49,0.15-2.76,0.45-3.81s0.79-1.86,1.45-2.42c0.67-0.56,1.55-0.84,2.64-0.84
			c1.54,0,2.69,0.62,3.45,1.86C460.69,393.1,461.07,394.83,461.07,397.07z M453.63,397.07c0,1.89,0.21,3.3,0.65,4.24
			s1.17,1.41,2.21,1.41c1.03,0,1.76-0.47,2.2-1.4c0.44-0.93,0.66-2.35,0.66-4.25c0-1.88-0.22-3.28-0.66-4.22
			c-0.44-0.94-1.18-1.41-2.2-1.41c-1.04,0-1.77,0.47-2.21,1.41C453.85,393.79,453.63,395.19,453.63,397.07z"/>
		<path fill="#CCCCCC" d="M472.08,397.07c0,1.48-0.15,2.74-0.46,3.8s-0.8,1.87-1.46,2.44c-0.67,0.57-1.55,0.85-2.66,0.85
			c-1.55,0-2.7-0.62-3.44-1.88s-1.11-2.99-1.11-5.21c0-1.49,0.15-2.76,0.45-3.81s0.79-1.86,1.45-2.42c0.67-0.56,1.55-0.84,2.64-0.84
			c1.54,0,2.69,0.62,3.45,1.86C471.7,393.1,472.08,394.83,472.08,397.07z M464.65,397.07c0,1.89,0.21,3.3,0.65,4.24
			s1.17,1.41,2.21,1.41c1.03,0,1.76-0.47,2.2-1.4c0.44-0.93,0.66-2.35,0.66-4.25c0-1.88-0.22-3.28-0.66-4.22
			c-0.44-0.94-1.18-1.41-2.2-1.41c-1.04,0-1.77,0.47-2.21,1.41C464.86,393.79,464.65,395.19,464.65,397.07z"/>
		<path fill="#CCCCCC" d="M490.99,393.45c1.17,0,2.04,0.3,2.62,0.9c0.58,0.6,0.87,1.56,0.87,2.9v6.72h-1.68v-6.64
			c0-1.63-0.7-2.45-2.1-2.45c-1,0-1.72,0.29-2.15,0.87s-0.65,1.42-0.65,2.52v5.7h-1.68v-6.64c0-1.63-0.71-2.45-2.12-2.45
			c-1.04,0-1.76,0.32-2.16,0.96c-0.4,0.64-0.6,1.57-0.6,2.77v5.35h-1.69v-10.32h1.37l0.25,1.41h0.1c0.32-0.54,0.75-0.94,1.3-1.2
			c0.55-0.26,1.13-0.4,1.74-0.4c1.62,0,2.67,0.58,3.16,1.73h0.1c0.35-0.59,0.82-1.03,1.42-1.31
			C489.69,393.59,490.32,393.45,490.99,393.45z"/>
		<path fill="#CCCCCC" d="M504.39,401.11c0,1-0.37,1.76-1.12,2.27s-1.75,0.77-3,0.77c-0.72,0-1.34-0.06-1.86-0.17
			c-0.52-0.12-0.98-0.28-1.38-0.48v-1.54c0.41,0.21,0.91,0.39,1.49,0.57c0.58,0.17,1.18,0.26,1.78,0.26c0.86,0,1.48-0.14,1.87-0.41
			c0.39-0.28,0.58-0.64,0.58-1.11c0-0.26-0.07-0.49-0.21-0.69c-0.14-0.21-0.4-0.41-0.76-0.62s-0.89-0.44-1.57-0.69
			c-0.67-0.26-1.24-0.51-1.71-0.77c-0.48-0.26-0.84-0.57-1.1-0.92s-0.39-0.82-0.39-1.39c0-0.87,0.36-1.55,1.07-2.02
			s1.65-0.71,2.8-0.71c0.63,0,1.22,0.06,1.76,0.18c0.55,0.12,1.06,0.29,1.53,0.51l-0.58,1.35c-0.44-0.18-0.89-0.33-1.37-0.46
			c-0.48-0.13-0.96-0.19-1.46-0.19c-0.69,0-1.22,0.11-1.59,0.34s-0.55,0.53-0.55,0.91c0,0.28,0.08,0.52,0.25,0.72
			c0.17,0.2,0.45,0.39,0.84,0.58s0.91,0.41,1.57,0.67c0.65,0.24,1.21,0.49,1.68,0.75c0.46,0.26,0.82,0.57,1.06,0.93
			C504.27,400.1,504.39,400.56,504.39,401.11z"/>
	</g>
	<g>
		<path fill="#CCCCCC" d="M559.98,403.96h-9.09v-1.41l3.6-3.64c0.69-0.69,1.28-1.31,1.75-1.85c0.47-0.54,0.83-1.07,1.08-1.59
			c0.24-0.52,0.37-1.09,0.37-1.7c0-0.76-0.22-1.33-0.67-1.72c-0.45-0.39-1.03-0.59-1.75-0.59c-0.67,0-1.25,0.12-1.76,0.35
			c-0.51,0.23-1.02,0.55-1.55,0.96l-0.91-1.14c0.54-0.45,1.16-0.83,1.86-1.15s1.49-0.47,2.36-0.47c1.28,0,2.3,0.33,3.04,0.97
			c0.74,0.65,1.12,1.54,1.12,2.69c0,0.72-0.15,1.39-0.44,2.02c-0.3,0.63-0.71,1.25-1.23,1.86c-0.53,0.61-1.14,1.26-1.85,1.96
			l-2.87,2.83v0.08h6.95V403.96z"/>
		<path fill="#CCCCCC" d="M571.05,397.07c0,1.48-0.15,2.74-0.46,3.8s-0.8,1.87-1.46,2.44c-0.67,0.57-1.55,0.85-2.66,0.85
			c-1.55,0-2.7-0.62-3.44-1.88s-1.11-2.99-1.11-5.21c0-1.49,0.15-2.76,0.45-3.81s0.79-1.86,1.45-2.42c0.67-0.56,1.55-0.84,2.64-0.84
			c1.54,0,2.69,0.62,3.45,1.86C570.67,393.1,571.05,394.83,571.05,397.07z M563.62,397.07c0,1.89,0.21,3.3,0.65,4.24
			s1.17,1.41,2.21,1.41c1.03,0,1.76-0.47,2.2-1.4c0.44-0.93,0.66-2.35,0.66-4.25c0-1.88-0.22-3.28-0.66-4.22
			c-0.44-0.94-1.18-1.41-2.2-1.41c-1.04,0-1.77,0.47-2.21,1.41C563.84,393.79,563.62,395.19,563.62,397.07z"/>
		<path fill="#CCCCCC" d="M582.07,397.07c0,1.48-0.15,2.74-0.46,3.8s-0.8,1.87-1.46,2.44c-0.67,0.57-1.55,0.85-2.66,0.85
			c-1.55,0-2.7-0.62-3.44-1.88s-1.11-2.99-1.11-5.21c0-1.49,0.15-2.76,0.45-3.81s0.79-1.86,1.45-2.42c0.67-0.56,1.55-0.84,2.64-0.84
			c1.54,0,2.69,0.62,3.45,1.86C581.69,393.1,582.07,394.83,582.07,397.07z M574.63,397.07c0,1.89,0.21,3.3,0.65,4.24
			s1.17,1.41,2.21,1.41c1.03,0,1.76-0.47,2.2-1.4c0.44-0.93,0.66-2.35,0.66-4.25c0-1.88-0.22-3.28-0.66-4.22
			c-0.44-0.94-1.18-1.41-2.2-1.41c-1.04,0-1.77,0.47-2.21,1.41C574.85,393.79,574.63,395.19,574.63,397.07z"/>
		<path fill="#CCCCCC" d="M593.08,397.07c0,1.48-0.15,2.74-0.46,3.8s-0.8,1.87-1.46,2.44c-0.67,0.57-1.55,0.85-2.66,0.85
			c-1.55,0-2.7-0.62-3.44-1.88s-1.11-2.99-1.11-5.21c0-1.49,0.15-2.76,0.45-3.81s0.79-1.86,1.45-2.42c0.67-0.56,1.55-0.84,2.64-0.84
			c1.54,0,2.69,0.62,3.45,1.86C592.7,393.1,593.08,394.83,593.08,397.07z M585.65,397.07c0,1.89,0.21,3.3,0.65,4.24
			s1.17,1.41,2.21,1.41c1.03,0,1.76-0.47,2.2-1.4c0.44-0.93,0.66-2.35,0.66-4.25c0-1.88-0.22-3.28-0.66-4.22
			c-0.44-0.94-1.18-1.41-2.2-1.41c-1.04,0-1.77,0.47-2.21,1.41C585.86,393.79,585.65,395.19,585.65,397.07z"/>
		<path fill="#CCCCCC" d="M611.99,393.45c1.17,0,2.04,0.3,2.62,0.9c0.58,0.6,0.87,1.56,0.87,2.9v6.72h-1.68v-6.64
			c0-1.63-0.7-2.45-2.1-2.45c-1,0-1.72,0.29-2.15,0.87s-0.65,1.42-0.65,2.52v5.7h-1.68v-6.64c0-1.63-0.71-2.45-2.12-2.45
			c-1.04,0-1.76,0.32-2.16,0.96c-0.4,0.64-0.6,1.57-0.6,2.77v5.35h-1.69v-10.32h1.37l0.25,1.41h0.1c0.32-0.54,0.75-0.94,1.3-1.2
			c0.55-0.26,1.13-0.4,1.74-0.4c1.62,0,2.67,0.58,3.16,1.73h0.1c0.35-0.59,0.82-1.03,1.42-1.31
			C610.69,393.59,611.32,393.45,611.99,393.45z"/>
		<path fill="#CCCCCC" d="M625.39,401.11c0,1-0.37,1.76-1.12,2.27s-1.75,0.77-3,0.77c-0.72,0-1.34-0.06-1.86-0.17
			c-0.52-0.12-0.98-0.28-1.38-0.48v-1.54c0.41,0.21,0.91,0.39,1.49,0.57c0.58,0.17,1.18,0.26,1.78,0.26c0.86,0,1.48-0.14,1.87-0.41
			c0.39-0.28,0.58-0.64,0.58-1.11c0-0.26-0.07-0.49-0.21-0.69c-0.14-0.21-0.4-0.41-0.76-0.62s-0.89-0.44-1.57-0.69
			c-0.67-0.26-1.24-0.51-1.71-0.77c-0.48-0.26-0.84-0.57-1.1-0.92s-0.39-0.82-0.39-1.39c0-0.87,0.36-1.55,1.07-2.02
			s1.65-0.71,2.8-0.71c0.63,0,1.22,0.06,1.76,0.18c0.55,0.12,1.06,0.29,1.53,0.51l-0.58,1.35c-0.44-0.18-0.89-0.33-1.37-0.46
			c-0.48-0.13-0.96-0.19-1.46-0.19c-0.69,0-1.22,0.11-1.59,0.34s-0.55,0.53-0.55,0.91c0,0.28,0.08,0.52,0.25,0.72
			c0.17,0.2,0.45,0.39,0.84,0.58s0.91,0.41,1.57,0.67c0.65,0.24,1.21,0.49,1.68,0.75c0.46,0.26,0.82,0.57,1.06,0.93
			C625.27,400.1,625.39,400.56,625.39,401.11z"/>
	</g>
</g>
</svg>
